G04 Layer: TopSolderMaskLayer*
G04 EasyEDA v6.3.43, 2020-05-12T15:16:01+02:00*
G04 4d644927dd1f4b27a0df6f52f7f7ce2a,accd6950acb14890b3c9ed90e7fce2f1,10*
G04 Gerber Generator version 0.2*
G04 Scale: 100 percent, Rotated: No, Reflected: No *
G04 Dimensions in inches *
G04 leading zeros omitted , absolute positions ,2 integer and 4 decimal *
%FSLAX24Y24*%
%MOIN*%
G90*
G70D02*

%ADD53C,0.035559*%
%ADD54C,0.086740*%
%ADD55C,0.055240*%
%ADD56C,0.019024*%
%ADD57C,0.038000*%
%ADD58C,0.058000*%
%ADD71R,0.051000X0.047000*%
%ADD78C,0.068000*%

%LPD*%
G54D53*
G01X9478Y1659D02*
G01X9005Y1659D01*
G01X9478Y2840D02*
G01X9005Y2840D01*
G01X9478Y2249D02*
G01X8927Y2249D01*
G54D54*
G01X8553Y2249D02*
G01X7962Y2249D01*
G54D55*
G01X1273Y1832D02*
G01X1509Y1832D01*
G01X1273Y4667D02*
G01X1509Y4667D01*
G54D56*
G01X4860Y5234D02*
G01X5064Y5234D01*
G01X4860Y5038D02*
G01X5064Y5038D01*
G01X4860Y4840D02*
G01X5064Y4840D01*
G01X4860Y4644D02*
G01X5064Y4644D01*
G01X4860Y4448D02*
G01X5064Y4448D01*
G01X4860Y4251D02*
G01X5064Y4251D01*
G01X5259Y4064D02*
G01X5259Y3860D01*
G01X5457Y4064D02*
G01X5457Y3860D01*
G01X5653Y4064D02*
G01X5653Y3860D01*
G01X5850Y4064D02*
G01X5850Y3860D01*
G01X6046Y4064D02*
G01X6046Y3860D01*
G01X6244Y4064D02*
G01X6244Y3860D01*
G01X6435Y4255D02*
G01X6639Y4255D01*
G01X6435Y4451D02*
G01X6639Y4451D01*
G01X6435Y4648D02*
G01X6639Y4648D01*
G01X6435Y4844D02*
G01X6639Y4844D01*
G01X6435Y5042D02*
G01X6639Y5042D01*
G01X6435Y5238D02*
G01X6639Y5238D01*
G01X6250Y5639D02*
G01X6250Y5435D01*
G01X6053Y5639D02*
G01X6053Y5435D01*
G01X5855Y5639D02*
G01X5855Y5435D01*
G01X5659Y5639D02*
G01X5659Y5435D01*
G01X5463Y5639D02*
G01X5463Y5435D01*
G01X5265Y5639D02*
G01X5265Y5435D01*
G54D57*
G01X6500Y12000D03*
G01X6500Y11500D03*
G54D58*
G01X10500Y3750D03*
G01X10500Y2500D03*
G01X10500Y1250D03*
G36*
G01X3809Y13842D02*
G01X3809Y14059D01*
G01X4126Y14059D01*
G01X4126Y13842D01*
G01X3809Y13842D01*
G37*
G36*
G01X3809Y13646D02*
G01X3809Y13844D01*
G01X4126Y13844D01*
G01X4126Y13646D01*
G01X3809Y13646D01*
G37*
G36*
G01X3809Y13450D02*
G01X3809Y13648D01*
G01X4126Y13648D01*
G01X4126Y13450D01*
G01X3809Y13450D01*
G37*
G36*
G01X4873Y13844D02*
G01X4873Y14042D01*
G01X5190Y14042D01*
G01X5190Y13844D01*
G01X4873Y13844D01*
G37*
G36*
G01X4873Y13646D02*
G01X4873Y13844D01*
G01X5190Y13844D01*
G01X5190Y13646D01*
G01X4873Y13646D01*
G37*
G36*
G01X4873Y13451D02*
G01X4873Y13648D01*
G01X5190Y13648D01*
G01X5190Y13451D01*
G01X4873Y13451D01*
G37*
G36*
G01X4165Y13473D02*
G01X4165Y14026D01*
G01X4834Y14026D01*
G01X4834Y13473D01*
G01X4165Y13473D01*
G37*
G36*
G01X751Y18755D02*
G01X751Y18992D01*
G01X1067Y18992D01*
G01X1067Y18755D01*
G01X751Y18755D01*
G37*
G36*
G01X751Y18380D02*
G01X751Y18619D01*
G01X1067Y18619D01*
G01X1067Y18380D01*
G01X751Y18380D01*
G37*
G36*
G01X751Y18007D02*
G01X751Y18244D01*
G01X1067Y18244D01*
G01X1067Y18007D01*
G01X751Y18007D01*
G37*
G36*
G01X1932Y18007D02*
G01X1932Y18244D01*
G01X2248Y18244D01*
G01X2248Y18007D01*
G01X1932Y18007D01*
G37*
G36*
G01X1165Y18009D02*
G01X1165Y18994D01*
G01X1836Y18994D01*
G01X1836Y18009D01*
G01X1165Y18009D01*
G37*
G36*
G01X1932Y18755D02*
G01X1932Y18992D01*
G01X2248Y18992D01*
G01X2248Y18755D01*
G01X1932Y18755D01*
G37*
G36*
G01X1932Y18380D02*
G01X1932Y18619D01*
G01X2250Y18619D01*
G01X2250Y18380D01*
G01X1932Y18380D01*
G37*
G36*
G01X7242Y10948D02*
G01X7242Y11421D01*
G01X7755Y11421D01*
G01X7755Y10948D01*
G01X7242Y10948D01*
G37*
G36*
G01X7242Y11578D02*
G01X7242Y12051D01*
G01X7755Y12051D01*
G01X7755Y11578D01*
G01X7242Y11578D01*
G37*
G36*
G01X7242Y13078D02*
G01X7242Y13551D01*
G01X7755Y13551D01*
G01X7755Y13078D01*
G01X7242Y13078D01*
G37*
G36*
G01X7242Y12448D02*
G01X7242Y12921D01*
G01X7755Y12921D01*
G01X7755Y12448D01*
G01X7242Y12448D01*
G37*
G36*
G01X4698Y12242D02*
G01X4698Y12757D01*
G01X5171Y12757D01*
G01X5171Y12242D01*
G01X4698Y12242D01*
G37*
G36*
G01X5328Y12242D02*
G01X5328Y12757D01*
G01X5801Y12757D01*
G01X5801Y12242D01*
G01X5328Y12242D01*
G37*
G36*
G01X11914Y3411D02*
G01X11914Y4042D01*
G01X12585Y4042D01*
G01X12585Y3411D01*
G01X11914Y3411D01*
G37*
G36*
G01X11914Y457D02*
G01X11914Y1088D01*
G01X12585Y1088D01*
G01X12585Y457D01*
G01X11914Y457D01*
G37*
G36*
G01X13914Y3411D02*
G01X13914Y4042D01*
G01X14585Y4042D01*
G01X14585Y3411D01*
G01X13914Y3411D01*
G37*
G36*
G01X13914Y457D02*
G01X13914Y1088D01*
G01X14585Y1088D01*
G01X14585Y457D01*
G01X13914Y457D01*
G37*
G36*
G01X11822Y4721D02*
G01X11822Y5294D01*
G01X12177Y5294D01*
G01X12177Y4721D01*
G01X11822Y4721D01*
G37*
G36*
G01X11447Y5705D02*
G01X11447Y6278D01*
G01X11803Y6278D01*
G01X11803Y5705D01*
G01X11447Y5705D01*
G37*
G36*
G01X12196Y5705D02*
G01X12196Y6278D01*
G01X12552Y6278D01*
G01X12552Y5705D01*
G01X12196Y5705D01*
G37*
G36*
G01X13822Y4721D02*
G01X13822Y5294D01*
G01X14177Y5294D01*
G01X14177Y4721D01*
G01X13822Y4721D01*
G37*
G36*
G01X13447Y5705D02*
G01X13447Y6278D01*
G01X13803Y6278D01*
G01X13803Y5705D01*
G01X13447Y5705D01*
G37*
G36*
G01X14196Y5705D02*
G01X14196Y6278D01*
G01X14552Y6278D01*
G01X14552Y5705D01*
G01X14196Y5705D01*
G37*
G36*
G01X11226Y12976D02*
G01X11226Y15023D01*
G01X13273Y15023D01*
G01X13273Y12976D01*
G01X11226Y12976D01*
G37*
G36*
G01X8863Y16736D02*
G01X8863Y17169D01*
G01X9731Y17169D01*
G01X9731Y16736D01*
G01X8863Y16736D01*
G37*
G36*
G01X8863Y16236D02*
G01X8863Y16669D01*
G01X9731Y16669D01*
G01X9731Y16236D01*
G01X8863Y16236D01*
G37*
G36*
G01X8863Y15736D02*
G01X8863Y16169D01*
G01X9731Y16169D01*
G01X9731Y15736D01*
G01X8863Y15736D01*
G37*
G36*
G01X8863Y15236D02*
G01X8863Y15669D01*
G01X9731Y15669D01*
G01X9731Y15236D01*
G01X8863Y15236D01*
G37*
G36*
G01X8863Y14736D02*
G01X8863Y15169D01*
G01X9731Y15169D01*
G01X9731Y14736D01*
G01X8863Y14736D01*
G37*
G36*
G01X8863Y14236D02*
G01X8863Y14669D01*
G01X9731Y14669D01*
G01X9731Y14236D01*
G01X8863Y14236D01*
G37*
G36*
G01X8863Y13736D02*
G01X8863Y14169D01*
G01X9731Y14169D01*
G01X9731Y13736D01*
G01X8863Y13736D01*
G37*
G36*
G01X8863Y13236D02*
G01X8863Y13669D01*
G01X9731Y13669D01*
G01X9731Y13236D01*
G01X8863Y13236D01*
G37*
G36*
G01X8863Y12736D02*
G01X8863Y13169D01*
G01X9731Y13169D01*
G01X9731Y12736D01*
G01X8863Y12736D01*
G37*
G36*
G01X8863Y12236D02*
G01X8863Y12669D01*
G01X9731Y12669D01*
G01X9731Y12236D01*
G01X8863Y12236D01*
G37*
G36*
G01X8863Y11736D02*
G01X8863Y12169D01*
G01X9731Y12169D01*
G01X9731Y11736D01*
G01X8863Y11736D01*
G37*
G36*
G01X8863Y11236D02*
G01X8863Y11669D01*
G01X9731Y11669D01*
G01X9731Y11236D01*
G01X8863Y11236D01*
G37*
G36*
G01X8863Y10736D02*
G01X8863Y11169D01*
G01X9731Y11169D01*
G01X9731Y10736D01*
G01X8863Y10736D01*
G37*
G36*
G01X8863Y10236D02*
G01X8863Y10669D01*
G01X9731Y10669D01*
G01X9731Y10236D01*
G01X8863Y10236D01*
G37*
G36*
G01X10177Y9625D02*
G01X10177Y10492D01*
G01X10610Y10492D01*
G01X10610Y9625D01*
G01X10177Y9625D01*
G37*
G36*
G01X10677Y9625D02*
G01X10677Y10492D01*
G01X11110Y10492D01*
G01X11110Y9625D01*
G01X10677Y9625D01*
G37*
G36*
G01X11177Y9625D02*
G01X11177Y10492D01*
G01X11610Y10492D01*
G01X11610Y9625D01*
G01X11177Y9625D01*
G37*
G36*
G01X11677Y9625D02*
G01X11677Y10492D01*
G01X12110Y10492D01*
G01X12110Y9625D01*
G01X11677Y9625D01*
G37*
G36*
G01X12177Y9625D02*
G01X12177Y10492D01*
G01X12610Y10492D01*
G01X12610Y9625D01*
G01X12177Y9625D01*
G37*
G36*
G01X12677Y9625D02*
G01X12677Y10492D01*
G01X13110Y10492D01*
G01X13110Y9625D01*
G01X12677Y9625D01*
G37*
G36*
G01X13177Y9625D02*
G01X13177Y10492D01*
G01X13610Y10492D01*
G01X13610Y9625D01*
G01X13177Y9625D01*
G37*
G36*
G01X13677Y9625D02*
G01X13677Y10492D01*
G01X14110Y10492D01*
G01X14110Y9625D01*
G01X13677Y9625D01*
G37*
G36*
G01X14177Y9625D02*
G01X14177Y10492D01*
G01X14610Y10492D01*
G01X14610Y9625D01*
G01X14177Y9625D01*
G37*
G36*
G01X14677Y9625D02*
G01X14677Y10492D01*
G01X15110Y10492D01*
G01X15110Y9625D01*
G01X14677Y9625D01*
G37*
G36*
G01X15556Y10236D02*
G01X15556Y10669D01*
G01X16423Y10669D01*
G01X16423Y10236D01*
G01X15556Y10236D01*
G37*
G36*
G01X15556Y10736D02*
G01X15556Y11169D01*
G01X16423Y11169D01*
G01X16423Y10736D01*
G01X15556Y10736D01*
G37*
G36*
G01X15556Y11236D02*
G01X15556Y11669D01*
G01X16423Y11669D01*
G01X16423Y11236D01*
G01X15556Y11236D01*
G37*
G36*
G01X15556Y11736D02*
G01X15556Y12169D01*
G01X16423Y12169D01*
G01X16423Y11736D01*
G01X15556Y11736D01*
G37*
G36*
G01X15556Y12236D02*
G01X15556Y12669D01*
G01X16423Y12669D01*
G01X16423Y12236D01*
G01X15556Y12236D01*
G37*
G36*
G01X15556Y12736D02*
G01X15556Y13169D01*
G01X16423Y13169D01*
G01X16423Y12736D01*
G01X15556Y12736D01*
G37*
G36*
G01X15556Y13236D02*
G01X15556Y13669D01*
G01X16423Y13669D01*
G01X16423Y13236D01*
G01X15556Y13236D01*
G37*
G36*
G01X15556Y13736D02*
G01X15556Y14169D01*
G01X16423Y14169D01*
G01X16423Y13736D01*
G01X15556Y13736D01*
G37*
G36*
G01X15556Y14236D02*
G01X15556Y14669D01*
G01X16423Y14669D01*
G01X16423Y14236D01*
G01X15556Y14236D01*
G37*
G36*
G01X15556Y14736D02*
G01X15556Y15169D01*
G01X16423Y15169D01*
G01X16423Y14736D01*
G01X15556Y14736D01*
G37*
G36*
G01X15556Y15236D02*
G01X15556Y15669D01*
G01X16423Y15669D01*
G01X16423Y15236D01*
G01X15556Y15236D01*
G37*
G36*
G01X15556Y15736D02*
G01X15556Y16169D01*
G01X16423Y16169D01*
G01X16423Y15736D01*
G01X15556Y15736D01*
G37*
G36*
G01X15556Y16236D02*
G01X15556Y16669D01*
G01X16423Y16669D01*
G01X16423Y16236D01*
G01X15556Y16236D01*
G37*
G36*
G01X15556Y16736D02*
G01X15556Y17169D01*
G01X16423Y17169D01*
G01X16423Y16736D01*
G01X15556Y16736D01*
G37*
G54D71*
G01X3084Y1750D03*
G01X2415Y1750D03*
G36*
G01X15672Y2367D02*
G01X15672Y2840D01*
G01X16225Y2840D01*
G01X16225Y2367D01*
G01X15672Y2367D01*
G37*
G36*
G01X16775Y2367D02*
G01X16775Y2840D01*
G01X17327Y2840D01*
G01X17327Y2367D01*
G01X16775Y2367D01*
G37*
G36*
G01X16775Y1659D02*
G01X16775Y2132D01*
G01X17327Y2132D01*
G01X17327Y1659D01*
G01X16775Y1659D01*
G37*
G36*
G01X15672Y1659D02*
G01X15672Y2132D01*
G01X16225Y2132D01*
G01X16225Y1659D01*
G01X15672Y1659D01*
G37*
G36*
G01X9538Y4742D02*
G01X9538Y5257D01*
G01X10011Y5257D01*
G01X10011Y4742D01*
G01X9538Y4742D01*
G37*
G36*
G01X8988Y4742D02*
G01X8988Y5257D01*
G01X9461Y5257D01*
G01X9461Y4742D01*
G01X8988Y4742D01*
G37*
G36*
G01X8038Y4742D02*
G01X8038Y5257D01*
G01X8511Y5257D01*
G01X8511Y4742D01*
G01X8038Y4742D01*
G37*
G36*
G01X7488Y4742D02*
G01X7488Y5257D01*
G01X7961Y5257D01*
G01X7961Y4742D01*
G01X7488Y4742D01*
G37*
G36*
G01X2803Y5263D02*
G01X2803Y5736D01*
G01X3198Y5736D01*
G01X3198Y5263D01*
G01X2803Y5263D01*
G37*
G36*
G01X3803Y5263D02*
G01X3803Y5736D01*
G01X4198Y5736D01*
G01X4198Y5263D01*
G01X3803Y5263D01*
G37*
G36*
G01X11488Y6742D02*
G01X11488Y7257D01*
G01X11960Y7257D01*
G01X11960Y6742D01*
G01X11488Y6742D01*
G37*
G36*
G01X12039Y6742D02*
G01X12039Y7257D01*
G01X12511Y7257D01*
G01X12511Y6742D01*
G01X12039Y6742D01*
G37*
G36*
G01X6242Y1513D02*
G01X6242Y1986D01*
G01X6757Y1986D01*
G01X6757Y1513D01*
G01X6242Y1513D01*
G37*
G36*
G01X6242Y961D02*
G01X6242Y1436D01*
G01X6757Y1436D01*
G01X6757Y961D01*
G01X6242Y961D01*
G37*
G36*
G01X5298Y6234D02*
G01X5298Y6765D01*
G01X5694Y6765D01*
G01X5694Y6234D01*
G01X5298Y6234D01*
G37*
G36*
G01X4805Y6234D02*
G01X4805Y6765D01*
G01X5201Y6765D01*
G01X5201Y6234D01*
G01X4805Y6234D01*
G37*
G36*
G01X4130Y3105D02*
G01X4130Y3375D01*
G01X4369Y3375D01*
G01X4369Y3105D01*
G01X4130Y3105D01*
G37*
G36*
G01X4130Y3625D02*
G01X4130Y3894D01*
G01X4369Y3894D01*
G01X4369Y3625D01*
G01X4130Y3625D01*
G37*
G36*
G01X2630Y3105D02*
G01X2630Y3375D01*
G01X2869Y3375D01*
G01X2869Y3105D01*
G01X2630Y3105D01*
G37*
G36*
G01X2630Y3625D02*
G01X2630Y3894D01*
G01X2869Y3894D01*
G01X2869Y3625D01*
G01X2630Y3625D01*
G37*
G36*
G01X3380Y3105D02*
G01X3380Y3375D01*
G01X3619Y3375D01*
G01X3619Y3105D01*
G01X3380Y3105D01*
G37*
G36*
G01X3380Y3625D02*
G01X3380Y3894D01*
G01X3619Y3894D01*
G01X3619Y3625D01*
G01X3380Y3625D01*
G37*
G36*
G01X1213Y3632D02*
G01X1213Y3890D01*
G01X2003Y3890D01*
G01X2003Y3632D01*
G01X1213Y3632D01*
G37*
G36*
G01X1213Y3376D02*
G01X1213Y3634D01*
G01X2003Y3634D01*
G01X2003Y3376D01*
G01X1213Y3376D01*
G37*
G36*
G01X1213Y3121D02*
G01X1213Y3378D01*
G01X2003Y3378D01*
G01X2003Y3121D01*
G01X1213Y3121D01*
G37*
G36*
G01X1213Y2865D02*
G01X1213Y3123D01*
G01X2003Y3123D01*
G01X2003Y2865D01*
G01X1213Y2865D01*
G37*
G36*
G01X1213Y2609D02*
G01X1213Y2867D01*
G01X2003Y2867D01*
G01X2003Y2609D01*
G01X1213Y2609D01*
G37*
G36*
G01X5182Y4176D02*
G01X5182Y5313D01*
G01X6317Y5313D01*
G01X6317Y4176D01*
G01X5182Y4176D01*
G37*
G36*
G01X3238Y6242D02*
G01X3238Y6757D01*
G01X3711Y6757D01*
G01X3711Y6242D01*
G01X3238Y6242D01*
G37*
G36*
G01X3788Y6242D02*
G01X3788Y6757D01*
G01X4261Y6757D01*
G01X4261Y6242D01*
G01X3788Y6242D01*
G37*
G54D78*
G01X5206Y10163D03*
G01X3785Y10127D03*
G01X3782Y8748D03*
G36*
G01X16539Y3742D02*
G01X16539Y4257D01*
G01X17011Y4257D01*
G01X17011Y3742D01*
G01X16539Y3742D01*
G37*
G36*
G01X15988Y3742D02*
G01X15988Y4257D01*
G01X16460Y4257D01*
G01X16460Y3742D01*
G01X15988Y3742D01*
G37*
G36*
G01X7242Y14238D02*
G01X7242Y14711D01*
G01X7757Y14711D01*
G01X7757Y14238D01*
G01X7242Y14238D01*
G37*
G36*
G01X7242Y14788D02*
G01X7242Y15261D01*
G01X7757Y15261D01*
G01X7757Y14788D01*
G01X7242Y14788D01*
G37*
G36*
G01X8242Y5988D02*
G01X8242Y6461D01*
G01X8757Y6461D01*
G01X8757Y5988D01*
G01X8242Y5988D01*
G37*
G36*
G01X8242Y6538D02*
G01X8242Y7011D01*
G01X8757Y7011D01*
G01X8757Y6538D01*
G01X8242Y6538D01*
G37*
G36*
G01X7242Y10013D02*
G01X7242Y10486D01*
G01X7757Y10486D01*
G01X7757Y10013D01*
G01X7242Y10013D01*
G37*
G36*
G01X7242Y9461D02*
G01X7242Y9934D01*
G01X7757Y9934D01*
G01X7757Y9461D01*
G01X7242Y9461D01*
G37*
G36*
G01X9242Y5988D02*
G01X9242Y6461D01*
G01X9756Y6461D01*
G01X9756Y5988D01*
G01X9242Y5988D01*
G37*
G36*
G01X9242Y6538D02*
G01X9242Y7011D01*
G01X9756Y7011D01*
G01X9756Y6538D01*
G01X9242Y6538D01*
G37*
G36*
G01X7242Y6538D02*
G01X7242Y7011D01*
G01X7757Y7011D01*
G01X7757Y6538D01*
G01X7242Y6538D01*
G37*
G36*
G01X7242Y5988D02*
G01X7242Y6461D01*
G01X7757Y6461D01*
G01X7757Y5988D01*
G01X7242Y5988D01*
G37*
G36*
G01X16539Y4742D02*
G01X16539Y5257D01*
G01X17011Y5257D01*
G01X17011Y4742D01*
G01X16539Y4742D01*
G37*
G36*
G01X15988Y4742D02*
G01X15988Y5257D01*
G01X16460Y5257D01*
G01X16460Y4742D01*
G01X15988Y4742D01*
G37*
G36*
G01X14039Y6742D02*
G01X14039Y7257D01*
G01X14511Y7257D01*
G01X14511Y6742D01*
G01X14039Y6742D01*
G37*
G36*
G01X13488Y6742D02*
G01X13488Y7257D01*
G01X13960Y7257D01*
G01X13960Y6742D01*
G01X13488Y6742D01*
G37*
G36*
G01X3548Y12234D02*
G01X3548Y12765D01*
G01X3944Y12765D01*
G01X3944Y12234D01*
G01X3548Y12234D01*
G37*
G36*
G01X3055Y12234D02*
G01X3055Y12765D01*
G01X3451Y12765D01*
G01X3451Y12234D01*
G01X3055Y12234D01*
G37*
G36*
G01X4234Y1055D02*
G01X4234Y1451D01*
G01X4765Y1451D01*
G01X4765Y1055D01*
G01X4234Y1055D01*
G37*
G36*
G01X4234Y1548D02*
G01X4234Y1944D01*
G01X4765Y1944D01*
G01X4765Y1548D01*
G01X4234Y1548D01*
G37*
G36*
G01X7234Y8055D02*
G01X7234Y8451D01*
G01X7765Y8451D01*
G01X7765Y8055D01*
G01X7234Y8055D01*
G37*
G36*
G01X7234Y8548D02*
G01X7234Y8944D01*
G01X7765Y8944D01*
G01X7765Y8548D01*
G01X7234Y8548D01*
G37*
G36*
G01X1057Y16984D02*
G01X1057Y17515D01*
G01X1451Y17515D01*
G01X1451Y16984D01*
G01X1057Y16984D01*
G37*
G36*
G01X1548Y16984D02*
G01X1548Y17515D01*
G01X1944Y17515D01*
G01X1944Y16984D01*
G01X1548Y16984D01*
G37*
G36*
G01X7234Y16298D02*
G01X7234Y16694D01*
G01X7765Y16694D01*
G01X7765Y16298D01*
G01X7234Y16298D01*
G37*
G36*
G01X7234Y15805D02*
G01X7234Y16201D01*
G01X7765Y16201D01*
G01X7765Y15805D01*
G01X7234Y15805D01*
G37*
G36*
G01X16548Y5734D02*
G01X16548Y6265D01*
G01X16943Y6265D01*
G01X16943Y5734D01*
G01X16548Y5734D01*
G37*
G36*
G01X16056Y5734D02*
G01X16056Y6265D01*
G01X16452Y6265D01*
G01X16452Y5734D01*
G01X16056Y5734D01*
G37*
G36*
G01X5234Y1055D02*
G01X5234Y1451D01*
G01X5765Y1451D01*
G01X5765Y1055D01*
G01X5234Y1055D01*
G37*
G36*
G01X5234Y1548D02*
G01X5234Y1944D01*
G01X5765Y1944D01*
G01X5765Y1548D01*
G01X5234Y1548D01*
G37*
G36*
G01X2788Y492D02*
G01X2788Y1007D01*
G01X3261Y1007D01*
G01X3261Y492D01*
G01X2788Y492D01*
G37*
G36*
G01X2238Y492D02*
G01X2238Y1007D01*
G01X2711Y1007D01*
G01X2711Y492D01*
G01X2238Y492D01*
G37*
M00*
M02*
