G04 Layer: BottomLayer*
G04 EasyEDA v6.3.43, 2020-05-12T15:16:01+02:00*
G04 4d644927dd1f4b27a0df6f52f7f7ce2a,accd6950acb14890b3c9ed90e7fce2f1,10*
G04 Gerber Generator version 0.2*
G04 Scale: 100 percent, Rotated: No, Reflected: No *
G04 Dimensions in inches *
G04 leading zeros omitted , absolute positions ,2 integer and 4 decimal *
%FSLAX24Y24*%
%MOIN*%
G90*
G70D02*

%ADD10C,0.010000*%
%ADD11C,0.040000*%
%ADD13C,0.020000*%
%ADD17C,0.025000*%
%ADD18C,0.024000*%
%ADD41C,0.060000*%
%ADD42C,0.047240*%

%LPD*%
G36*
G01X7064Y4573D02*
G01X7034Y4573D01*
G01X7028Y4572D01*
G01X7023Y4570D01*
G01X7013Y4564D01*
G01X7009Y4560D01*
G01X7003Y4550D01*
G01X7001Y4545D01*
G01X7000Y4539D01*
G01X7000Y4500D01*
G01X5790Y4500D01*
G01X5778Y4498D01*
G01X5773Y4496D01*
G01X5763Y4490D01*
G01X5759Y4486D01*
G01X5753Y4476D01*
G01X5751Y4471D01*
G01X5750Y4465D01*
G01X5750Y3510D01*
G01X5751Y3504D01*
G01X5754Y3498D01*
G01X5757Y3493D01*
G01X5761Y3488D01*
G01X6369Y2880D01*
G01X6375Y2877D01*
G01X6380Y2875D01*
G01X6386Y2873D01*
G01X6399Y2873D01*
G01X6411Y2877D01*
G01X6416Y2880D01*
G01X6421Y2885D01*
G01X7087Y3550D01*
G01X7091Y3555D01*
G01X7094Y3560D01*
G01X7097Y3566D01*
G01X7098Y3572D01*
G01X7099Y3579D01*
G01X7099Y4533D01*
G01X7097Y4545D01*
G01X7095Y4550D01*
G01X7089Y4560D01*
G01X7085Y4564D01*
G01X7075Y4570D01*
G01X7070Y4572D01*
G01X7064Y4573D01*
G37*

%LPD*%
G36*
G01X17864Y17398D02*
G01X6635Y17398D01*
G01X6629Y17397D01*
G01X6624Y17395D01*
G01X6614Y17389D01*
G01X6610Y17385D01*
G01X6604Y17375D01*
G01X6602Y17370D01*
G01X6601Y17364D01*
G01X6601Y14500D01*
G01X6600Y14490D01*
G01X6599Y14481D01*
G01X6597Y14472D01*
G01X6594Y14463D01*
G01X6586Y14447D01*
G01X6580Y14439D01*
G01X6575Y14432D01*
G01X6568Y14425D01*
G01X6561Y14419D01*
G01X6545Y14409D01*
G01X6537Y14406D01*
G01X6528Y14403D01*
G01X6523Y14401D01*
G01X6518Y14398D01*
G01X6513Y14394D01*
G01X6509Y14390D01*
G01X6506Y14386D01*
G01X6503Y14381D01*
G01X6501Y14376D01*
G01X6500Y14370D01*
G01X6500Y13394D01*
G01X6503Y13386D01*
G01X6505Y13380D01*
G01X6509Y13373D01*
G01X6542Y13322D01*
G01X6547Y13316D01*
G01X6856Y13006D01*
G01X6864Y12998D01*
G01X6872Y12988D01*
G01X6884Y12968D01*
G01X6889Y12957D01*
G01X6893Y12946D01*
G01X6896Y12935D01*
G01X6899Y12923D01*
G01X6900Y12911D01*
G01X6901Y12900D01*
G01X6901Y12322D01*
G01X6902Y12316D01*
G01X6905Y12310D01*
G01X6908Y12305D01*
G01X6912Y12300D01*
G01X6962Y12250D01*
G01X6967Y12246D01*
G01X6972Y12243D01*
G01X6978Y12240D01*
G01X7025Y12225D01*
G01X7032Y12223D01*
G01X7047Y12221D01*
G01X7075Y12213D01*
G01X7089Y12207D01*
G01X7102Y12201D01*
G01X7115Y12194D01*
G01X7127Y12186D01*
G01X7151Y12168D01*
G01X7155Y12164D01*
G01X7160Y12161D01*
G01X7166Y12159D01*
G01X7171Y12158D01*
G01X7177Y12157D01*
G01X7184Y12158D01*
G01X7190Y12159D01*
G01X7195Y12162D01*
G01X7201Y12165D01*
G01X7206Y12169D01*
G01X8249Y13212D01*
G01X8253Y13217D01*
G01X8256Y13222D01*
G01X8259Y13228D01*
G01X8274Y13275D01*
G01X8276Y13282D01*
G01X8278Y13296D01*
G01X8282Y13309D01*
G01X8286Y13323D01*
G01X8296Y13349D01*
G01X8310Y13373D01*
G01X8318Y13385D01*
G01X8327Y13396D01*
G01X8336Y13406D01*
G01X8346Y13416D01*
G01X8357Y13425D01*
G01X8368Y13433D01*
G01X8380Y13441D01*
G01X8404Y13455D01*
G01X8417Y13460D01*
G01X8431Y13465D01*
G01X8444Y13469D01*
G01X8458Y13472D01*
G01X8472Y13474D01*
G01X8485Y13475D01*
G01X8513Y13475D01*
G01X8527Y13474D01*
G01X8540Y13472D01*
G01X8554Y13469D01*
G01X8580Y13461D01*
G01X8592Y13456D01*
G01X8605Y13450D01*
G01X8616Y13443D01*
G01X8628Y13435D01*
G01X8639Y13427D01*
G01X8649Y13419D01*
G01X8669Y13399D01*
G01X8677Y13389D01*
G01X8685Y13378D01*
G01X8693Y13366D01*
G01X8700Y13355D01*
G01X8706Y13342D01*
G01X8711Y13330D01*
G01X8719Y13304D01*
G01X8722Y13290D01*
G01X8724Y13277D01*
G01X8725Y13263D01*
G01X8726Y13250D01*
G01X8725Y13235D01*
G01X8724Y13222D01*
G01X8722Y13208D01*
G01X8719Y13194D01*
G01X8715Y13181D01*
G01X8710Y13167D01*
G01X8705Y13154D01*
G01X8691Y13130D01*
G01X8683Y13118D01*
G01X8675Y13107D01*
G01X8666Y13096D01*
G01X8656Y13086D01*
G01X8646Y13077D01*
G01X8635Y13068D01*
G01X8623Y13060D01*
G01X8599Y13046D01*
G01X8573Y13036D01*
G01X8559Y13032D01*
G01X8546Y13028D01*
G01X8532Y13026D01*
G01X8525Y13024D01*
G01X8478Y13009D01*
G01X8472Y13006D01*
G01X8467Y13003D01*
G01X8462Y12999D01*
G01X7412Y11949D01*
G01X7408Y11944D01*
G01X7405Y11939D01*
G01X7402Y11933D01*
G01X7401Y11927D01*
G01X7401Y10500D01*
G01X7399Y10476D01*
G01X7396Y10464D01*
G01X7393Y10453D01*
G01X7389Y10442D01*
G01X7384Y10431D01*
G01X7372Y10411D01*
G01X7364Y10401D01*
G01X7011Y10048D01*
G01X7007Y10043D01*
G01X7004Y10038D01*
G01X7001Y10032D01*
G01X7000Y10026D01*
G01X7000Y7516D01*
G01X7001Y7510D01*
G01X7003Y7505D01*
G01X7006Y7500D01*
G01X7009Y7496D01*
G01X7013Y7492D01*
G01X7018Y7488D01*
G01X7023Y7485D01*
G01X7028Y7483D01*
G01X7034Y7482D01*
G01X7046Y7482D01*
G01X7058Y7486D01*
G01X7063Y7489D01*
G01X7068Y7493D01*
G01X10087Y10512D01*
G01X10091Y10517D01*
G01X10094Y10523D01*
G01X10097Y10528D01*
G01X10098Y10534D01*
G01X10098Y11871D01*
G01X10097Y11876D01*
G01X10095Y11882D01*
G01X10092Y11887D01*
G01X10089Y11891D01*
G01X10085Y11895D01*
G01X10080Y11899D01*
G01X10075Y11902D01*
G01X10070Y11904D01*
G01X10064Y11905D01*
G01X10059Y11905D01*
G01X10050Y11904D01*
G01X10033Y11901D01*
G01X10016Y11899D01*
G01X10000Y11898D01*
G01X9985Y11899D01*
G01X9971Y11900D01*
G01X9956Y11903D01*
G01X9942Y11906D01*
G01X9928Y11910D01*
G01X9915Y11915D01*
G01X9901Y11921D01*
G01X9889Y11928D01*
G01X9876Y11935D01*
G01X9858Y11947D01*
G01X9808Y11972D01*
G01X9802Y11973D01*
G01X8822Y11973D01*
G01X8816Y11972D01*
G01X8766Y11947D01*
G01X8748Y11935D01*
G01X8735Y11928D01*
G01X8723Y11921D01*
G01X8709Y11915D01*
G01X8696Y11910D01*
G01X8682Y11906D01*
G01X8668Y11903D01*
G01X8653Y11900D01*
G01X8625Y11898D01*
G01X8597Y11900D01*
G01X8584Y11902D01*
G01X8570Y11905D01*
G01X8544Y11913D01*
G01X8532Y11918D01*
G01X8519Y11924D01*
G01X8508Y11931D01*
G01X8496Y11939D01*
G01X8485Y11947D01*
G01X8475Y11955D01*
G01X8455Y11975D01*
G01X8447Y11985D01*
G01X8439Y11996D01*
G01X8431Y12008D01*
G01X8424Y12019D01*
G01X8418Y12032D01*
G01X8413Y12044D01*
G01X8405Y12070D01*
G01X8402Y12084D01*
G01X8400Y12097D01*
G01X8399Y12111D01*
G01X8399Y12138D01*
G01X8400Y12152D01*
G01X8402Y12165D01*
G01X8405Y12178D01*
G01X8413Y12204D01*
G01X8418Y12217D01*
G01X8424Y12229D01*
G01X8431Y12241D01*
G01X8438Y12252D01*
G01X8446Y12263D01*
G01X8455Y12274D01*
G01X8464Y12284D01*
G01X8472Y12294D01*
G01X8474Y12300D01*
G01X8476Y12312D01*
G01X8474Y12324D01*
G01X8472Y12330D01*
G01X8464Y12340D01*
G01X8455Y12350D01*
G01X8446Y12361D01*
G01X8438Y12372D01*
G01X8431Y12383D01*
G01X8424Y12395D01*
G01X8418Y12407D01*
G01X8413Y12420D01*
G01X8405Y12446D01*
G01X8402Y12459D01*
G01X8400Y12472D01*
G01X8399Y12486D01*
G01X8399Y12513D01*
G01X8400Y12527D01*
G01X8402Y12540D01*
G01X8405Y12554D01*
G01X8413Y12580D01*
G01X8418Y12592D01*
G01X8424Y12605D01*
G01X8431Y12616D01*
G01X8439Y12628D01*
G01X8447Y12639D01*
G01X8455Y12649D01*
G01X8475Y12669D01*
G01X8485Y12677D01*
G01X8496Y12685D01*
G01X8508Y12693D01*
G01X8519Y12700D01*
G01X8532Y12706D01*
G01X8544Y12711D01*
G01X8570Y12719D01*
G01X8584Y12722D01*
G01X8597Y12724D01*
G01X8611Y12725D01*
G01X8639Y12725D01*
G01X8653Y12724D01*
G01X8668Y12721D01*
G01X8682Y12718D01*
G01X8696Y12714D01*
G01X8709Y12709D01*
G01X8723Y12703D01*
G01X8735Y12696D01*
G01X8748Y12689D01*
G01X8766Y12677D01*
G01X8816Y12652D01*
G01X8828Y12650D01*
G01X9796Y12650D01*
G01X9808Y12652D01*
G01X9858Y12677D01*
G01X9876Y12689D01*
G01X9889Y12696D01*
G01X9901Y12703D01*
G01X9915Y12709D01*
G01X9928Y12714D01*
G01X9942Y12718D01*
G01X9956Y12721D01*
G01X9971Y12724D01*
G01X9985Y12725D01*
G01X10016Y12725D01*
G01X10033Y12723D01*
G01X10050Y12720D01*
G01X10059Y12719D01*
G01X10064Y12719D01*
G01X10070Y12720D01*
G01X10075Y12722D01*
G01X10080Y12725D01*
G01X10085Y12729D01*
G01X10089Y12733D01*
G01X10092Y12737D01*
G01X10095Y12742D01*
G01X10097Y12748D01*
G01X10098Y12753D01*
G01X10098Y12965D01*
G01X10097Y12971D01*
G01X10094Y12976D01*
G01X10091Y12982D01*
G01X10087Y12987D01*
G01X9037Y14037D01*
G01X9032Y14041D01*
G01X9026Y14044D01*
G01X9021Y14047D01*
G01X9015Y14048D01*
G01X8600Y14048D01*
G01X8568Y14050D01*
G01X8552Y14052D01*
G01X8537Y14055D01*
G01X8522Y14059D01*
G01X8506Y14063D01*
G01X8492Y14068D01*
G01X8477Y14075D01*
G01X8463Y14081D01*
G01X8449Y14089D01*
G01X8436Y14097D01*
G01X8423Y14106D01*
G01X8410Y14116D01*
G01X8398Y14126D01*
G01X8376Y14148D01*
G01X8366Y14160D01*
G01X8356Y14173D01*
G01X8347Y14186D01*
G01X8339Y14199D01*
G01X8331Y14213D01*
G01X8325Y14227D01*
G01X8318Y14242D01*
G01X8313Y14256D01*
G01X8309Y14272D01*
G01X8305Y14287D01*
G01X8302Y14302D01*
G01X8300Y14318D01*
G01X8299Y14334D01*
G01X8299Y14365D01*
G01X8300Y14381D01*
G01X8302Y14397D01*
G01X8305Y14412D01*
G01X8309Y14427D01*
G01X8313Y14443D01*
G01X8318Y14457D01*
G01X8325Y14472D01*
G01X8331Y14486D01*
G01X8339Y14500D01*
G01X8347Y14513D01*
G01X8356Y14526D01*
G01X8366Y14539D01*
G01X8376Y14551D01*
G01X8398Y14573D01*
G01X8410Y14583D01*
G01X8423Y14593D01*
G01X8436Y14602D01*
G01X8449Y14610D01*
G01X8463Y14618D01*
G01X8477Y14624D01*
G01X8492Y14631D01*
G01X8506Y14636D01*
G01X8522Y14640D01*
G01X8537Y14644D01*
G01X8552Y14647D01*
G01X8568Y14649D01*
G01X8584Y14650D01*
G01X9165Y14650D01*
G01X9181Y14649D01*
G01X9197Y14647D01*
G01X9212Y14644D01*
G01X9227Y14640D01*
G01X9243Y14636D01*
G01X9257Y14631D01*
G01X9272Y14624D01*
G01X9286Y14618D01*
G01X9300Y14610D01*
G01X9313Y14602D01*
G01X9326Y14593D01*
G01X9339Y14583D01*
G01X9351Y14573D01*
G01X10623Y13301D01*
G01X10633Y13289D01*
G01X10643Y13276D01*
G01X10652Y13263D01*
G01X10660Y13250D01*
G01X10668Y13236D01*
G01X10674Y13222D01*
G01X10681Y13207D01*
G01X10686Y13193D01*
G01X10690Y13177D01*
G01X10694Y13162D01*
G01X10697Y13147D01*
G01X10699Y13131D01*
G01X10700Y13115D01*
G01X10701Y13100D01*
G01X10701Y10909D01*
G01X10702Y10903D01*
G01X10704Y10898D01*
G01X10710Y10888D01*
G01X10714Y10884D01*
G01X10724Y10878D01*
G01X10729Y10876D01*
G01X10735Y10875D01*
G01X11375Y10875D01*
G01X11382Y10872D01*
G01X11391Y10871D01*
G01X11397Y10871D01*
G01X11409Y10875D01*
G01X11419Y10883D01*
G01X14837Y14300D01*
G01X14841Y14305D01*
G01X14844Y14310D01*
G01X14847Y14316D01*
G01X14848Y14322D01*
G01X14848Y14802D01*
G01X14847Y14808D01*
G01X14822Y14858D01*
G01X14810Y14876D01*
G01X14803Y14889D01*
G01X14796Y14901D01*
G01X14790Y14915D01*
G01X14785Y14928D01*
G01X14781Y14942D01*
G01X14778Y14956D01*
G01X14775Y14971D01*
G01X14774Y14985D01*
G01X14773Y15000D01*
G01X14774Y15013D01*
G01X14775Y15027D01*
G01X14777Y15040D01*
G01X14780Y15054D01*
G01X14788Y15080D01*
G01X14793Y15092D01*
G01X14799Y15105D01*
G01X14806Y15116D01*
G01X14814Y15128D01*
G01X14822Y15139D01*
G01X14830Y15149D01*
G01X14850Y15169D01*
G01X14860Y15177D01*
G01X14871Y15185D01*
G01X14883Y15193D01*
G01X14894Y15200D01*
G01X14907Y15206D01*
G01X14919Y15211D01*
G01X14945Y15219D01*
G01X14959Y15222D01*
G01X14972Y15224D01*
G01X14986Y15225D01*
G01X15013Y15225D01*
G01X15027Y15224D01*
G01X15040Y15222D01*
G01X15054Y15219D01*
G01X15080Y15211D01*
G01X15092Y15206D01*
G01X15105Y15200D01*
G01X15117Y15193D01*
G01X15150Y15169D01*
G01X15159Y15159D01*
G01X15169Y15149D01*
G01X15178Y15139D01*
G01X15186Y15128D01*
G01X15200Y15104D01*
G01X15206Y15092D01*
G01X15211Y15079D01*
G01X15219Y15053D01*
G01X15222Y15040D01*
G01X15224Y15026D01*
G01X15225Y15013D01*
G01X15227Y15001D01*
G01X15233Y14991D01*
G01X15241Y14983D01*
G01X15251Y14977D01*
G01X15263Y14975D01*
G01X15276Y14974D01*
G01X15290Y14972D01*
G01X15303Y14969D01*
G01X15329Y14961D01*
G01X15342Y14956D01*
G01X15354Y14950D01*
G01X15378Y14936D01*
G01X15389Y14928D01*
G01X15399Y14919D01*
G01X15409Y14909D01*
G01X15419Y14900D01*
G01X15443Y14867D01*
G01X15450Y14855D01*
G01X15456Y14842D01*
G01X15461Y14830D01*
G01X15469Y14804D01*
G01X15472Y14790D01*
G01X15474Y14777D01*
G01X15475Y14763D01*
G01X15476Y14750D01*
G01X15475Y14735D01*
G01X15474Y14721D01*
G01X15471Y14706D01*
G01X15468Y14692D01*
G01X15464Y14678D01*
G01X15459Y14665D01*
G01X15453Y14651D01*
G01X15446Y14639D01*
G01X15439Y14626D01*
G01X15427Y14608D01*
G01X15402Y14558D01*
G01X15401Y14552D01*
G01X15401Y14125D01*
G01X15399Y14101D01*
G01X15396Y14089D01*
G01X15393Y14078D01*
G01X15389Y14067D01*
G01X15384Y14056D01*
G01X15372Y14036D01*
G01X15364Y14026D01*
G01X9162Y7824D01*
G01X9158Y7819D01*
G01X9155Y7814D01*
G01X9152Y7808D01*
G01X9151Y7802D01*
G01X9151Y6947D01*
G01X9152Y6941D01*
G01X9177Y6891D01*
G01X9189Y6873D01*
G01X9196Y6860D01*
G01X9203Y6848D01*
G01X9209Y6834D01*
G01X9214Y6821D01*
G01X9218Y6807D01*
G01X9221Y6793D01*
G01X9224Y6778D01*
G01X9226Y6750D01*
G01X9224Y6722D01*
G01X9222Y6709D01*
G01X9219Y6695D01*
G01X9211Y6669D01*
G01X9206Y6657D01*
G01X9200Y6644D01*
G01X9193Y6633D01*
G01X9185Y6621D01*
G01X9177Y6610D01*
G01X9169Y6600D01*
G01X9149Y6580D01*
G01X9139Y6572D01*
G01X9128Y6564D01*
G01X9116Y6556D01*
G01X9105Y6549D01*
G01X9092Y6543D01*
G01X9080Y6538D01*
G01X9054Y6530D01*
G01X9040Y6527D01*
G01X9027Y6525D01*
G01X9013Y6524D01*
G01X9000Y6523D01*
G01X8972Y6525D01*
G01X8959Y6527D01*
G01X8945Y6530D01*
G01X8919Y6538D01*
G01X8907Y6543D01*
G01X8894Y6549D01*
G01X8883Y6556D01*
G01X8871Y6564D01*
G01X8860Y6572D01*
G01X8850Y6580D01*
G01X8830Y6600D01*
G01X8822Y6610D01*
G01X8814Y6621D01*
G01X8806Y6633D01*
G01X8799Y6644D01*
G01X8793Y6657D01*
G01X8788Y6669D01*
G01X8780Y6695D01*
G01X8777Y6709D01*
G01X8775Y6722D01*
G01X8774Y6736D01*
G01X8774Y6764D01*
G01X8775Y6778D01*
G01X8778Y6793D01*
G01X8781Y6807D01*
G01X8785Y6821D01*
G01X8790Y6834D01*
G01X8796Y6848D01*
G01X8803Y6860D01*
G01X8810Y6873D01*
G01X8822Y6891D01*
G01X8847Y6941D01*
G01X8849Y6953D01*
G01X8849Y7788D01*
G01X8847Y7800D01*
G01X8845Y7805D01*
G01X8839Y7815D01*
G01X8835Y7819D01*
G01X8825Y7825D01*
G01X8820Y7827D01*
G01X8814Y7828D01*
G01X8802Y7828D01*
G01X8790Y7824D01*
G01X8785Y7821D01*
G01X8780Y7817D01*
G01X7011Y6048D01*
G01X7007Y6043D01*
G01X7004Y6038D01*
G01X7001Y6032D01*
G01X7000Y6026D01*
G01X7000Y5835D01*
G01X7001Y5829D01*
G01X7003Y5824D01*
G01X7009Y5814D01*
G01X7013Y5810D01*
G01X7023Y5804D01*
G01X7028Y5802D01*
G01X7040Y5800D01*
G01X9266Y5800D01*
G01X9282Y5799D01*
G01X9298Y5797D01*
G01X9314Y5794D01*
G01X9329Y5790D01*
G01X9345Y5785D01*
G01X9375Y5773D01*
G01X9389Y5766D01*
G01X9404Y5758D01*
G01X9430Y5740D01*
G01X9443Y5730D01*
G01X9446Y5728D01*
G01X9544Y5658D01*
G01X9549Y5655D01*
G01X9555Y5652D01*
G01X9567Y5650D01*
G01X15496Y5650D01*
G01X15508Y5652D01*
G01X15558Y5677D01*
G01X15576Y5689D01*
G01X15589Y5696D01*
G01X15601Y5703D01*
G01X15615Y5709D01*
G01X15628Y5714D01*
G01X15642Y5718D01*
G01X15656Y5721D01*
G01X15671Y5724D01*
G01X15685Y5725D01*
G01X15713Y5725D01*
G01X15727Y5724D01*
G01X15740Y5722D01*
G01X15754Y5719D01*
G01X15780Y5711D01*
G01X15792Y5706D01*
G01X15805Y5700D01*
G01X15816Y5693D01*
G01X15828Y5685D01*
G01X15839Y5677D01*
G01X15849Y5669D01*
G01X15869Y5649D01*
G01X15877Y5639D01*
G01X15885Y5628D01*
G01X15893Y5616D01*
G01X15900Y5605D01*
G01X15906Y5592D01*
G01X15911Y5580D01*
G01X15919Y5554D01*
G01X15922Y5540D01*
G01X15924Y5527D01*
G01X15925Y5513D01*
G01X15926Y5500D01*
G01X15924Y5472D01*
G01X15922Y5459D01*
G01X15919Y5445D01*
G01X15911Y5419D01*
G01X15906Y5407D01*
G01X15900Y5394D01*
G01X15893Y5383D01*
G01X15885Y5371D01*
G01X15877Y5360D01*
G01X15869Y5350D01*
G01X15849Y5330D01*
G01X15839Y5322D01*
G01X15828Y5314D01*
G01X15816Y5306D01*
G01X15805Y5299D01*
G01X15792Y5293D01*
G01X15780Y5288D01*
G01X15754Y5280D01*
G01X15740Y5277D01*
G01X15727Y5275D01*
G01X15713Y5274D01*
G01X15700Y5273D01*
G01X15685Y5274D01*
G01X15671Y5275D01*
G01X15656Y5278D01*
G01X15642Y5281D01*
G01X15628Y5285D01*
G01X15615Y5290D01*
G01X15601Y5296D01*
G01X15589Y5303D01*
G01X15576Y5310D01*
G01X15558Y5322D01*
G01X15557Y5323D01*
G01X15552Y5325D01*
G01X15540Y5327D01*
G01X15528Y5325D01*
G01X15523Y5323D01*
G01X15513Y5317D01*
G01X15509Y5313D01*
G01X15503Y5303D01*
G01X15501Y5298D01*
G01X15500Y5292D01*
G01X15500Y5133D01*
G01X15501Y5128D01*
G01X15503Y5122D01*
G01X15506Y5117D01*
G01X15510Y5112D01*
G01X15514Y5108D01*
G01X15526Y5098D01*
G01X15923Y4701D01*
G01X15933Y4689D01*
G01X15943Y4676D01*
G01X15952Y4663D01*
G01X15960Y4650D01*
G01X15968Y4636D01*
G01X15974Y4622D01*
G01X15981Y4607D01*
G01X15986Y4593D01*
G01X15990Y4577D01*
G01X15994Y4562D01*
G01X15997Y4547D01*
G01X15999Y4531D01*
G01X16000Y4515D01*
G01X16001Y4500D01*
G01X15999Y4468D01*
G01X15997Y4452D01*
G01X15994Y4437D01*
G01X15990Y4422D01*
G01X15986Y4406D01*
G01X15981Y4392D01*
G01X15974Y4377D01*
G01X15968Y4363D01*
G01X15960Y4349D01*
G01X15952Y4336D01*
G01X15943Y4323D01*
G01X15933Y4310D01*
G01X15923Y4298D01*
G01X15901Y4276D01*
G01X15889Y4266D01*
G01X15876Y4256D01*
G01X15863Y4247D01*
G01X15850Y4239D01*
G01X15836Y4231D01*
G01X15822Y4225D01*
G01X15807Y4218D01*
G01X15793Y4213D01*
G01X15777Y4209D01*
G01X15762Y4205D01*
G01X15747Y4202D01*
G01X15731Y4200D01*
G01X15715Y4199D01*
G01X15700Y4198D01*
G01X15668Y4200D01*
G01X15652Y4202D01*
G01X15637Y4205D01*
G01X15622Y4209D01*
G01X15606Y4213D01*
G01X15592Y4218D01*
G01X15577Y4225D01*
G01X15563Y4231D01*
G01X15549Y4239D01*
G01X15536Y4247D01*
G01X15523Y4256D01*
G01X15510Y4266D01*
G01X15498Y4276D01*
G01X15212Y4562D01*
G01X15207Y4566D01*
G01X15201Y4569D01*
G01X15196Y4572D01*
G01X15190Y4573D01*
G01X8941Y4573D01*
G01X8935Y4572D01*
G01X8930Y4570D01*
G01X8920Y4564D01*
G01X8916Y4560D01*
G01X8910Y4550D01*
G01X8908Y4545D01*
G01X8907Y4539D01*
G01X8907Y4527D01*
G01X8909Y4521D01*
G01X8913Y4507D01*
G01X8916Y4493D01*
G01X8919Y4478D01*
G01X8921Y4450D01*
G01X8919Y4422D01*
G01X8917Y4409D01*
G01X8914Y4396D01*
G01X8910Y4382D01*
G01X8906Y4370D01*
G01X8900Y4357D01*
G01X8894Y4345D01*
G01X8887Y4333D01*
G01X8880Y4322D01*
G01X8872Y4311D01*
G01X8863Y4300D01*
G01X8833Y4273D01*
G01X8821Y4265D01*
G01X8810Y4258D01*
G01X8798Y4252D01*
G01X8785Y4246D01*
G01X8773Y4241D01*
G01X8760Y4237D01*
G01X8746Y4234D01*
G01X8733Y4231D01*
G01X8726Y4229D01*
G01X8683Y4214D01*
G01X8678Y4212D01*
G01X8673Y4209D01*
G01X8668Y4205D01*
G01X6761Y2298D01*
G01X6757Y2293D01*
G01X6754Y2288D01*
G01X6751Y2282D01*
G01X6750Y2276D01*
G01X6750Y135D01*
G01X6751Y129D01*
G01X6753Y124D01*
G01X6759Y114D01*
G01X6763Y110D01*
G01X6773Y104D01*
G01X6778Y102D01*
G01X6790Y100D01*
G01X17859Y100D01*
G01X17864Y101D01*
G01X17870Y102D01*
G01X17875Y104D01*
G01X17885Y110D01*
G01X17889Y114D01*
G01X17895Y124D01*
G01X17897Y129D01*
G01X17898Y135D01*
G01X17898Y17364D01*
G01X17897Y17370D01*
G01X17895Y17375D01*
G01X17889Y17385D01*
G01X17885Y17389D01*
G01X17875Y17395D01*
G01X17870Y17397D01*
G01X17864Y17398D01*
G37*

%LPC*%
G36*
G01X13014Y11225D02*
G01X12986Y11225D01*
G01X12972Y11224D01*
G01X12959Y11222D01*
G01X12945Y11219D01*
G01X12919Y11211D01*
G01X12907Y11206D01*
G01X12894Y11200D01*
G01X12883Y11193D01*
G01X12871Y11185D01*
G01X12860Y11177D01*
G01X12850Y11169D01*
G01X12830Y11149D01*
G01X12822Y11139D01*
G01X12814Y11128D01*
G01X12806Y11116D01*
G01X12799Y11105D01*
G01X12793Y11092D01*
G01X12788Y11080D01*
G01X12780Y11054D01*
G01X12777Y11040D01*
G01X12775Y11027D01*
G01X12774Y11013D01*
G01X12773Y11000D01*
G01X12774Y10985D01*
G01X12775Y10972D01*
G01X12777Y10958D01*
G01X12780Y10944D01*
G01X12784Y10931D01*
G01X12789Y10917D01*
G01X12794Y10904D01*
G01X12808Y10880D01*
G01X12816Y10868D01*
G01X12824Y10857D01*
G01X12833Y10846D01*
G01X12843Y10836D01*
G01X12853Y10827D01*
G01X12864Y10818D01*
G01X12876Y10810D01*
G01X12900Y10796D01*
G01X12926Y10786D01*
G01X12940Y10782D01*
G01X12953Y10778D01*
G01X12967Y10776D01*
G01X12974Y10774D01*
G01X13021Y10759D01*
G01X13027Y10756D01*
G01X13032Y10753D01*
G01X13037Y10749D01*
G01X16837Y6949D01*
G01X16841Y6944D01*
G01X16844Y6939D01*
G01X16847Y6933D01*
G01X16848Y6927D01*
G01X16848Y3447D01*
G01X16847Y3441D01*
G01X16822Y3391D01*
G01X16810Y3373D01*
G01X16803Y3360D01*
G01X16796Y3348D01*
G01X16790Y3334D01*
G01X16785Y3321D01*
G01X16781Y3307D01*
G01X16778Y3293D01*
G01X16775Y3278D01*
G01X16773Y3250D01*
G01X16775Y3222D01*
G01X16777Y3209D01*
G01X16780Y3195D01*
G01X16788Y3169D01*
G01X16793Y3157D01*
G01X16799Y3144D01*
G01X16806Y3133D01*
G01X16814Y3121D01*
G01X16822Y3110D01*
G01X16830Y3100D01*
G01X16850Y3080D01*
G01X16860Y3072D01*
G01X16871Y3064D01*
G01X16883Y3056D01*
G01X16894Y3049D01*
G01X16907Y3043D01*
G01X16919Y3038D01*
G01X16945Y3030D01*
G01X16959Y3027D01*
G01X16972Y3025D01*
G01X17000Y3023D01*
G01X17013Y3024D01*
G01X17027Y3025D01*
G01X17040Y3027D01*
G01X17054Y3030D01*
G01X17080Y3038D01*
G01X17092Y3043D01*
G01X17105Y3049D01*
G01X17116Y3056D01*
G01X17128Y3064D01*
G01X17139Y3072D01*
G01X17149Y3080D01*
G01X17169Y3100D01*
G01X17177Y3110D01*
G01X17185Y3121D01*
G01X17193Y3133D01*
G01X17200Y3144D01*
G01X17206Y3157D01*
G01X17211Y3169D01*
G01X17219Y3195D01*
G01X17222Y3209D01*
G01X17224Y3222D01*
G01X17226Y3250D01*
G01X17224Y3278D01*
G01X17221Y3293D01*
G01X17218Y3307D01*
G01X17214Y3321D01*
G01X17209Y3334D01*
G01X17203Y3348D01*
G01X17196Y3360D01*
G01X17189Y3373D01*
G01X17177Y3391D01*
G01X17152Y3441D01*
G01X17151Y3447D01*
G01X17151Y7000D01*
G01X17150Y7011D01*
G01X17149Y7023D01*
G01X17146Y7035D01*
G01X17143Y7046D01*
G01X17139Y7057D01*
G01X17134Y7068D01*
G01X17122Y7088D01*
G01X17114Y7098D01*
G01X13250Y10962D01*
G01X13246Y10967D01*
G01X13243Y10972D01*
G01X13240Y10978D01*
G01X13225Y11025D01*
G01X13223Y11032D01*
G01X13221Y11046D01*
G01X13217Y11059D01*
G01X13213Y11073D01*
G01X13203Y11099D01*
G01X13189Y11123D01*
G01X13181Y11135D01*
G01X13172Y11146D01*
G01X13163Y11156D01*
G01X13153Y11166D01*
G01X13142Y11175D01*
G01X13131Y11183D01*
G01X13119Y11191D01*
G01X13095Y11205D01*
G01X13082Y11210D01*
G01X13068Y11215D01*
G01X13055Y11219D01*
G01X13041Y11222D01*
G01X13027Y11224D01*
G01X13014Y11225D01*
G37*
G36*
G01X14435Y16804D02*
G01X14407Y16804D01*
G01X14393Y16803D01*
G01X14380Y16801D01*
G01X14366Y16798D01*
G01X14340Y16790D01*
G01X14328Y16785D01*
G01X14315Y16779D01*
G01X14304Y16772D01*
G01X14292Y16764D01*
G01X14281Y16756D01*
G01X14271Y16748D01*
G01X14251Y16728D01*
G01X14243Y16718D01*
G01X14235Y16707D01*
G01X14227Y16695D01*
G01X14220Y16684D01*
G01X14214Y16671D01*
G01X14209Y16659D01*
G01X14201Y16633D01*
G01X14198Y16619D01*
G01X14196Y16606D01*
G01X14194Y16578D01*
G01X14195Y16565D01*
G01X14196Y16551D01*
G01X14198Y16538D01*
G01X14201Y16524D01*
G01X14209Y16498D01*
G01X14214Y16486D01*
G01X14220Y16473D01*
G01X14227Y16462D01*
G01X14235Y16450D01*
G01X14243Y16439D01*
G01X14251Y16429D01*
G01X14271Y16409D01*
G01X14281Y16401D01*
G01X14292Y16393D01*
G01X14304Y16385D01*
G01X14315Y16378D01*
G01X14328Y16372D01*
G01X14340Y16367D01*
G01X14366Y16359D01*
G01X14380Y16356D01*
G01X14393Y16354D01*
G01X14421Y16352D01*
G01X14449Y16354D01*
G01X14464Y16357D01*
G01X14478Y16360D01*
G01X14492Y16364D01*
G01X14505Y16369D01*
G01X14519Y16375D01*
G01X14531Y16382D01*
G01X14544Y16389D01*
G01X14562Y16401D01*
G01X14612Y16426D01*
G01X14618Y16427D01*
G01X14848Y16427D01*
G01X14854Y16426D01*
G01X14860Y16423D01*
G01X14865Y16420D01*
G01X14870Y16416D01*
G01X16587Y14699D01*
G01X16591Y14694D01*
G01X16594Y14689D01*
G01X16597Y14683D01*
G01X16598Y14677D01*
G01X16598Y13947D01*
G01X16597Y13941D01*
G01X16572Y13891D01*
G01X16560Y13873D01*
G01X16553Y13860D01*
G01X16546Y13848D01*
G01X16540Y13834D01*
G01X16535Y13821D01*
G01X16531Y13807D01*
G01X16528Y13793D01*
G01X16525Y13778D01*
G01X16523Y13750D01*
G01X16525Y13722D01*
G01X16527Y13709D01*
G01X16530Y13695D01*
G01X16538Y13669D01*
G01X16543Y13657D01*
G01X16549Y13644D01*
G01X16556Y13633D01*
G01X16564Y13621D01*
G01X16572Y13610D01*
G01X16580Y13600D01*
G01X16600Y13580D01*
G01X16610Y13572D01*
G01X16621Y13564D01*
G01X16633Y13556D01*
G01X16644Y13549D01*
G01X16657Y13543D01*
G01X16669Y13538D01*
G01X16695Y13530D01*
G01X16709Y13527D01*
G01X16722Y13525D01*
G01X16750Y13523D01*
G01X16763Y13524D01*
G01X16777Y13525D01*
G01X16790Y13527D01*
G01X16804Y13530D01*
G01X16830Y13538D01*
G01X16842Y13543D01*
G01X16855Y13549D01*
G01X16866Y13556D01*
G01X16878Y13564D01*
G01X16889Y13572D01*
G01X16899Y13580D01*
G01X16919Y13600D01*
G01X16927Y13610D01*
G01X16935Y13621D01*
G01X16943Y13633D01*
G01X16950Y13644D01*
G01X16956Y13657D01*
G01X16961Y13669D01*
G01X16969Y13695D01*
G01X16972Y13709D01*
G01X16974Y13722D01*
G01X16976Y13750D01*
G01X16974Y13778D01*
G01X16971Y13793D01*
G01X16968Y13807D01*
G01X16964Y13821D01*
G01X16959Y13834D01*
G01X16953Y13848D01*
G01X16946Y13860D01*
G01X16939Y13873D01*
G01X16927Y13891D01*
G01X16902Y13941D01*
G01X16901Y13947D01*
G01X16901Y14750D01*
G01X16900Y14761D01*
G01X16899Y14773D01*
G01X16896Y14785D01*
G01X16893Y14796D01*
G01X16889Y14807D01*
G01X16884Y14818D01*
G01X16872Y14838D01*
G01X16864Y14848D01*
G01X15019Y16693D01*
G01X15009Y16701D01*
G01X14989Y16713D01*
G01X14978Y16718D01*
G01X14967Y16722D01*
G01X14956Y16725D01*
G01X14944Y16728D01*
G01X14932Y16729D01*
G01X14624Y16729D01*
G01X14612Y16731D01*
G01X14562Y16756D01*
G01X14544Y16768D01*
G01X14531Y16775D01*
G01X14519Y16782D01*
G01X14505Y16788D01*
G01X14492Y16793D01*
G01X14478Y16797D01*
G01X14464Y16800D01*
G01X14449Y16803D01*
G01X14435Y16804D01*
G37*
G36*
G01X17269Y1244D02*
G01X17230Y1244D01*
G01X17210Y1243D01*
G01X17190Y1241D01*
G01X17170Y1238D01*
G01X17151Y1234D01*
G01X17131Y1230D01*
G01X17112Y1225D01*
G01X17093Y1219D01*
G01X17074Y1212D01*
G01X17056Y1205D01*
G01X17037Y1196D01*
G01X17020Y1188D01*
G01X17002Y1178D01*
G01X16985Y1168D01*
G01X16968Y1157D01*
G01X16952Y1145D01*
G01X16937Y1133D01*
G01X16921Y1120D01*
G01X16879Y1078D01*
G01X16866Y1062D01*
G01X16854Y1047D01*
G01X16842Y1031D01*
G01X16831Y1014D01*
G01X16821Y997D01*
G01X16811Y979D01*
G01X16803Y962D01*
G01X16794Y943D01*
G01X16787Y925D01*
G01X16780Y906D01*
G01X16774Y887D01*
G01X16769Y868D01*
G01X16765Y848D01*
G01X16761Y829D01*
G01X16758Y809D01*
G01X16756Y789D01*
G01X16755Y769D01*
G01X16755Y730D01*
G01X16756Y710D01*
G01X16758Y690D01*
G01X16761Y670D01*
G01X16765Y651D01*
G01X16769Y631D01*
G01X16774Y612D01*
G01X16780Y593D01*
G01X16787Y574D01*
G01X16794Y556D01*
G01X16803Y537D01*
G01X16811Y520D01*
G01X16821Y502D01*
G01X16831Y485D01*
G01X16842Y468D01*
G01X16854Y452D01*
G01X16866Y437D01*
G01X16879Y421D01*
G01X16921Y379D01*
G01X16937Y366D01*
G01X16952Y354D01*
G01X16968Y342D01*
G01X16985Y331D01*
G01X17002Y321D01*
G01X17020Y311D01*
G01X17037Y303D01*
G01X17056Y294D01*
G01X17074Y287D01*
G01X17093Y280D01*
G01X17112Y274D01*
G01X17131Y269D01*
G01X17151Y265D01*
G01X17170Y261D01*
G01X17190Y258D01*
G01X17210Y256D01*
G01X17230Y255D01*
G01X17269Y255D01*
G01X17289Y256D01*
G01X17309Y258D01*
G01X17329Y261D01*
G01X17348Y265D01*
G01X17368Y269D01*
G01X17387Y274D01*
G01X17406Y280D01*
G01X17425Y287D01*
G01X17443Y294D01*
G01X17462Y303D01*
G01X17479Y311D01*
G01X17497Y321D01*
G01X17514Y331D01*
G01X17531Y342D01*
G01X17547Y354D01*
G01X17562Y366D01*
G01X17578Y379D01*
G01X17620Y421D01*
G01X17633Y437D01*
G01X17645Y452D01*
G01X17657Y468D01*
G01X17668Y485D01*
G01X17678Y502D01*
G01X17688Y520D01*
G01X17696Y537D01*
G01X17705Y556D01*
G01X17712Y574D01*
G01X17719Y593D01*
G01X17725Y612D01*
G01X17730Y631D01*
G01X17734Y651D01*
G01X17738Y670D01*
G01X17741Y690D01*
G01X17743Y710D01*
G01X17744Y730D01*
G01X17744Y769D01*
G01X17743Y789D01*
G01X17741Y809D01*
G01X17738Y829D01*
G01X17734Y848D01*
G01X17730Y868D01*
G01X17725Y887D01*
G01X17719Y906D01*
G01X17712Y925D01*
G01X17705Y943D01*
G01X17696Y962D01*
G01X17688Y979D01*
G01X17678Y997D01*
G01X17668Y1014D01*
G01X17657Y1031D01*
G01X17645Y1047D01*
G01X17633Y1062D01*
G01X17620Y1078D01*
G01X17578Y1120D01*
G01X17562Y1133D01*
G01X17547Y1145D01*
G01X17531Y1157D01*
G01X17514Y1168D01*
G01X17497Y1178D01*
G01X17479Y1188D01*
G01X17462Y1196D01*
G01X17443Y1205D01*
G01X17425Y1212D01*
G01X17406Y1219D01*
G01X17387Y1225D01*
G01X17368Y1230D01*
G01X17348Y1234D01*
G01X17329Y1238D01*
G01X17309Y1241D01*
G01X17289Y1243D01*
G01X17269Y1244D01*
G37*
G36*
G01X17269Y17244D02*
G01X17230Y17244D01*
G01X17210Y17243D01*
G01X17190Y17241D01*
G01X17170Y17238D01*
G01X17151Y17234D01*
G01X17131Y17230D01*
G01X17112Y17225D01*
G01X17093Y17219D01*
G01X17074Y17212D01*
G01X17056Y17205D01*
G01X17037Y17196D01*
G01X17020Y17188D01*
G01X17002Y17178D01*
G01X16985Y17168D01*
G01X16968Y17157D01*
G01X16952Y17145D01*
G01X16937Y17133D01*
G01X16921Y17120D01*
G01X16879Y17078D01*
G01X16866Y17062D01*
G01X16854Y17047D01*
G01X16842Y17031D01*
G01X16831Y17014D01*
G01X16821Y16997D01*
G01X16811Y16979D01*
G01X16803Y16962D01*
G01X16794Y16943D01*
G01X16787Y16925D01*
G01X16780Y16906D01*
G01X16774Y16887D01*
G01X16769Y16868D01*
G01X16765Y16848D01*
G01X16761Y16829D01*
G01X16758Y16809D01*
G01X16756Y16789D01*
G01X16755Y16769D01*
G01X16755Y16730D01*
G01X16756Y16710D01*
G01X16758Y16690D01*
G01X16761Y16670D01*
G01X16765Y16651D01*
G01X16769Y16631D01*
G01X16774Y16612D01*
G01X16780Y16593D01*
G01X16787Y16574D01*
G01X16794Y16556D01*
G01X16803Y16537D01*
G01X16811Y16520D01*
G01X16821Y16502D01*
G01X16831Y16485D01*
G01X16842Y16468D01*
G01X16854Y16452D01*
G01X16866Y16437D01*
G01X16879Y16421D01*
G01X16921Y16379D01*
G01X16937Y16366D01*
G01X16952Y16354D01*
G01X16968Y16342D01*
G01X16985Y16331D01*
G01X17002Y16321D01*
G01X17020Y16311D01*
G01X17037Y16303D01*
G01X17056Y16294D01*
G01X17074Y16287D01*
G01X17093Y16280D01*
G01X17112Y16274D01*
G01X17131Y16269D01*
G01X17151Y16265D01*
G01X17170Y16261D01*
G01X17190Y16258D01*
G01X17210Y16256D01*
G01X17230Y16255D01*
G01X17269Y16255D01*
G01X17289Y16256D01*
G01X17309Y16258D01*
G01X17329Y16261D01*
G01X17348Y16265D01*
G01X17368Y16269D01*
G01X17387Y16274D01*
G01X17406Y16280D01*
G01X17425Y16287D01*
G01X17443Y16294D01*
G01X17462Y16303D01*
G01X17479Y16311D01*
G01X17497Y16321D01*
G01X17514Y16331D01*
G01X17531Y16342D01*
G01X17547Y16354D01*
G01X17562Y16366D01*
G01X17578Y16379D01*
G01X17620Y16421D01*
G01X17633Y16437D01*
G01X17645Y16452D01*
G01X17657Y16468D01*
G01X17668Y16485D01*
G01X17678Y16502D01*
G01X17688Y16520D01*
G01X17696Y16537D01*
G01X17705Y16556D01*
G01X17712Y16574D01*
G01X17719Y16593D01*
G01X17725Y16612D01*
G01X17730Y16631D01*
G01X17734Y16651D01*
G01X17738Y16670D01*
G01X17741Y16690D01*
G01X17743Y16710D01*
G01X17744Y16730D01*
G01X17744Y16769D01*
G01X17743Y16789D01*
G01X17741Y16809D01*
G01X17738Y16829D01*
G01X17734Y16848D01*
G01X17730Y16868D01*
G01X17725Y16887D01*
G01X17719Y16906D01*
G01X17712Y16925D01*
G01X17705Y16943D01*
G01X17696Y16962D01*
G01X17688Y16979D01*
G01X17678Y16997D01*
G01X17668Y17014D01*
G01X17657Y17031D01*
G01X17645Y17047D01*
G01X17633Y17062D01*
G01X17620Y17078D01*
G01X17578Y17120D01*
G01X17562Y17133D01*
G01X17547Y17145D01*
G01X17531Y17157D01*
G01X17514Y17168D01*
G01X17497Y17178D01*
G01X17479Y17188D01*
G01X17462Y17196D01*
G01X17443Y17205D01*
G01X17425Y17212D01*
G01X17406Y17219D01*
G01X17387Y17225D01*
G01X17368Y17230D01*
G01X17348Y17234D01*
G01X17329Y17238D01*
G01X17309Y17241D01*
G01X17289Y17243D01*
G01X17269Y17244D01*
G37*

%LPD*%
G54D10*
G01X6000Y1250D02*
G01X7000Y1250D01*
G01X7250Y1000D01*
G01X7250Y750D01*
G54D11*
G01X1392Y1832D02*
G01X2475Y750D01*
G01X7000Y750D01*
G01X7250Y750D01*
G01X4750Y6000D02*
G01X5750Y7000D01*
G01X7000Y7000D01*
G01X9000Y9000D01*
G54D10*
G01X9000Y6750D02*
G01X9000Y7875D01*
G01X15250Y14125D01*
G01X15250Y14625D01*
G01X15250Y14750D01*
G54D11*
G01X9000Y9000D02*
G01X10400Y10400D01*
G01X10400Y13100D01*
G01X9150Y14350D01*
G01X8600Y14350D01*
G54D10*
G01X7250Y4875D02*
G01X7250Y3500D01*
G01X6000Y2250D01*
G54D11*
G01X4750Y6000D02*
G01X5250Y5500D01*
G01X9250Y5500D01*
G54D10*
G01X6000Y1750D02*
G01X8700Y4450D01*
G01X6300Y13300D02*
G01X5650Y13300D01*
G01X2500Y10150D01*
G01X2500Y6000D01*
G01X2150Y5650D01*
G01X1000Y5650D01*
G01X650Y6000D01*
G01X650Y16150D01*
G01X2375Y17875D01*
G01X2375Y18875D01*
G01X7000Y12000D02*
G01X6750Y12250D01*
G01X6750Y12900D01*
G01X6350Y13300D01*
G01X6300Y13300D01*
G01X350Y18600D02*
G01X350Y5900D01*
G01X850Y5400D01*
G01X2300Y5400D01*
G01X2750Y5850D01*
G01X2750Y10000D01*
G01X5750Y13000D01*
G01X5750Y13000D02*
G01X6250Y13000D01*
G01X6500Y12750D01*
G01X6500Y12000D01*
G01X7000Y11500D01*
G01X5750Y7500D02*
G01X4750Y7500D01*
G01X4500Y7250D01*
G01X2750Y1250D02*
G01X3250Y1750D01*
G01X3250Y6500D01*
G01X7250Y10500D01*
G01X7250Y12000D01*
G01X8500Y13250D01*
G54D13*
G01X1392Y4667D02*
G01X1000Y4275D01*
G01X1000Y2225D01*
G01X1392Y1832D01*
G54D10*
G01X3500Y4750D02*
G01X4000Y4250D01*
G01X4250Y4250D01*
G54D11*
G01X4300Y5500D02*
G01X4925Y4875D01*
G01X7250Y4875D01*
G54D10*
G01X13000Y11000D02*
G01X17000Y7000D01*
G01X17000Y3250D01*
G01X6750Y6000D02*
G01X15000Y14250D01*
G01X15000Y15000D01*
G54D11*
G01X7250Y4875D02*
G01X15325Y4875D01*
G01X15700Y4500D01*
G54D10*
G01X9250Y5500D02*
G01X15700Y5500D01*
G01X2250Y4750D02*
G01X3000Y4000D01*
G01X8625Y12500D02*
G01X10000Y12500D01*
G01X8625Y12125D02*
G01X10000Y12125D01*
G01X14421Y16578D02*
G01X14921Y16578D01*
G01X16750Y14750D01*
G01X16750Y13750D01*

%LPD*%
G36*
G01X7300Y1000D02*
G01X7200Y1000D01*
G01X7100Y882D01*
G01X7400Y882D01*
G01X7300Y1000D01*
G37*

%LPD*%
G36*
G01X8707Y4330D02*
G01X8580Y4457D01*
G01X8549Y4369D01*
G01X8619Y4299D01*
G01X8707Y4330D01*
G37*

%LPD*%
G36*
G01X6150Y1830D02*
G01X6080Y1900D01*
G01X5992Y1869D01*
G01X6119Y1742D01*
G01X6150Y1830D01*
G37*

%LPD*%
G36*
G01X5757Y12880D02*
G01X5630Y13007D01*
G01X5599Y12919D01*
G01X5669Y12849D01*
G01X5757Y12880D01*
G37*

%LPD*%
G36*
G01X5913Y13050D02*
G01X5829Y13090D01*
G01X5829Y12909D01*
G01X5913Y12950D01*
G01X5913Y13050D01*
G37*

%LPD*%
G36*
G01X6220Y13209D02*
G01X6220Y13390D01*
G01X6136Y13350D01*
G01X6136Y13250D01*
G01X6220Y13209D01*
G37*

%LPD*%
G36*
G01X6465Y13255D02*
G01X6415Y13333D01*
G01X6318Y13181D01*
G01X6410Y13169D01*
G01X6465Y13255D01*
G37*

%LPD*%
G36*
G01X443Y18517D02*
G01X256Y18517D01*
G01X300Y18429D01*
G01X400Y18429D01*
G01X443Y18517D01*
G37*

%LPD*%
G36*
G01X2468Y18792D02*
G01X2281Y18792D01*
G01X2325Y18704D01*
G01X2425Y18704D01*
G01X2468Y18792D01*
G37*

%LPD*%
G36*
G01X16800Y13920D02*
G01X16700Y13920D01*
G01X16656Y13832D01*
G01X16843Y13832D01*
G01X16800Y13920D01*
G37*

%LPD*%
G36*
G01X14591Y16629D02*
G01X14503Y16672D01*
G01X14503Y16485D01*
G01X14591Y16529D01*
G01X14591Y16629D01*
G37*

%LPD*%
G36*
G01X2905Y1334D02*
G01X2834Y1405D01*
G01X2742Y1374D01*
G01X2874Y1242D01*
G01X2905Y1334D01*
G37*

%LPD*%
G36*
G01X8507Y13125D02*
G01X8375Y13257D01*
G01X8344Y13165D01*
G01X8415Y13094D01*
G01X8507Y13125D01*
G37*

%LPD*%
G36*
G01X6155Y2334D02*
G01X6084Y2405D01*
G01X5992Y2374D01*
G01X6124Y2242D01*
G01X6155Y2334D01*
G37*

%LPD*%
G36*
G01X7400Y4742D02*
G01X7100Y4742D01*
G01X7200Y4602D01*
G01X7300Y4602D01*
G01X7400Y4742D01*
G37*

%LPD*%
G36*
G01X6905Y6084D02*
G01X6834Y6155D01*
G01X6742Y6124D01*
G01X6874Y5992D01*
G01X6905Y6084D01*
G37*

%LPD*%
G36*
G01X15093Y14917D02*
G01X14906Y14917D01*
G01X14950Y14829D01*
G01X15050Y14829D01*
G01X15093Y14917D01*
G37*

%LPD*%
G36*
G01X9050Y6920D02*
G01X8950Y6920D01*
G01X8906Y6832D01*
G01X9093Y6832D01*
G01X9050Y6920D01*
G37*

%LPD*%
G36*
G01X15343Y14667D02*
G01X15156Y14667D01*
G01X15200Y14579D01*
G01X15300Y14579D01*
G01X15343Y14667D01*
G37*

%LPD*%
G36*
G01X6170Y1300D02*
G01X6082Y1343D01*
G01X6082Y1156D01*
G01X6170Y1200D01*
G01X6170Y1300D01*
G37*

%LPD*%
G36*
G01X13155Y10915D02*
G01X13124Y11007D01*
G01X12992Y10875D01*
G01X13084Y10844D01*
G01X13155Y10915D01*
G37*

%LPD*%
G36*
G01X17050Y3420D02*
G01X16950Y3420D01*
G01X16906Y3332D01*
G01X17093Y3332D01*
G01X17050Y3420D01*
G37*

%LPD*%
G36*
G01X9522Y5550D02*
G01X9382Y5650D01*
G01X9382Y5350D01*
G01X9522Y5450D01*
G01X9522Y5550D01*
G37*

%LPD*%
G36*
G01X15617Y5406D02*
G01X15617Y5593D01*
G01X15529Y5550D01*
G01X15529Y5450D01*
G01X15617Y5406D01*
G37*

%LPD*%
G36*
G01X2405Y4665D02*
G01X2374Y4757D01*
G01X2242Y4625D01*
G01X2334Y4594D01*
G01X2405Y4665D01*
G37*

%LPD*%
G36*
G01X3007Y4124D02*
G01X2915Y4155D01*
G01X2844Y4084D01*
G01X2875Y3992D01*
G01X3007Y4124D01*
G37*

%LPD*%
G36*
G01X7007Y11624D02*
G01X6915Y11655D01*
G01X6844Y11584D01*
G01X6875Y11492D01*
G01X7007Y11624D01*
G37*

%LPD*%
G36*
G01X7007Y12124D02*
G01X6915Y12155D01*
G01X6844Y12084D01*
G01X6875Y11992D01*
G01X7007Y12124D01*
G37*

%LPD*%
G36*
G01X8795Y12550D02*
G01X8707Y12593D01*
G01X8707Y12406D01*
G01X8795Y12450D01*
G01X8795Y12550D01*
G37*

%LPD*%
G36*
G01X8795Y12175D02*
G01X8707Y12218D01*
G01X8707Y12031D01*
G01X8795Y12075D01*
G01X8795Y12175D01*
G37*

%LPD*%
G36*
G01X9917Y12406D02*
G01X9917Y12593D01*
G01X9829Y12550D01*
G01X9829Y12450D01*
G01X9917Y12406D01*
G37*

%LPD*%
G36*
G01X9917Y12031D02*
G01X9917Y12218D01*
G01X9829Y12175D01*
G01X9829Y12075D01*
G01X9917Y12031D01*
G37*

%LPD*%
G36*
G01X3650Y4669D02*
G01X3619Y4757D01*
G01X3492Y4630D01*
G01X3580Y4599D01*
G01X3650Y4669D01*
G37*

%LPD*%
G36*
G01X4170Y4159D02*
G01X4170Y4340D01*
G01X4086Y4300D01*
G01X4086Y4200D01*
G01X4170Y4159D01*
G37*

%LPD*%
G36*
G01X4655Y7334D02*
G01X4584Y7405D01*
G01X4492Y7374D01*
G01X4624Y7242D01*
G01X4655Y7334D01*
G37*

%LPD*%
G36*
G01X5667Y7406D02*
G01X5667Y7593D01*
G01X5579Y7550D01*
G01X5579Y7450D01*
G01X5667Y7406D01*
G37*

%LPD*%
G36*
G01X2048Y1459D02*
G01X1509Y2069D01*
G01X1273Y1596D01*
G01X1680Y1261D01*
G01X2048Y1459D01*
G37*

%LPD*%
G36*
G01X1509Y2069D02*
G01X1130Y2236D01*
G01X929Y2154D01*
G01X1273Y2069D01*
G01X1509Y2069D01*
G37*

%LPD*%
G36*
G01X1509Y4430D02*
G01X1273Y4430D01*
G01X929Y4345D01*
G01X1130Y4263D01*
G01X1509Y4430D01*
G37*
G54D41*
G01X5206Y10163D03*
G01X3785Y10127D03*
G01X3782Y8748D03*
G54D17*
G01X7250Y2000D03*
G01X6900Y16500D03*
G01X6900Y15500D03*
G01X7000Y3750D03*
G54D11*
G01X7250Y750D03*
G54D17*
G01X6400Y3150D03*
G01X11250Y2078D03*
G01X11250Y3078D03*
G01X11000Y650D03*
G01X10000Y650D03*
G01X9000Y650D03*
G01X8000Y650D03*
G54D18*
G01X8700Y4450D03*
G01X6000Y1750D03*
G01X5750Y13000D03*
G01X6300Y13300D03*
G54D11*
G01X10000Y2000D03*
G54D17*
G01X350Y18600D03*
G01X2375Y18875D03*
G01X16750Y13750D03*
G01X14421Y16578D03*
G01X2750Y1250D03*
G01X8500Y13250D03*
G01X6000Y2250D03*
G54D11*
G01X7250Y4875D03*
G01X4300Y5500D03*
G54D17*
G01X6750Y6000D03*
G01X15000Y15000D03*
G01X9000Y6750D03*
G01X15250Y14750D03*
G01X6000Y1250D03*
G01X13000Y11000D03*
G01X17000Y3250D03*
G54D11*
G01X15700Y4500D03*
G01X9250Y5500D03*
G54D17*
G01X15700Y5500D03*
G01X4750Y6000D03*
G54D11*
G01X9000Y9000D03*
G01X8600Y14350D03*
G54D17*
G01X2250Y4750D03*
G01X3000Y4000D03*
G01X7421Y17078D03*
G01X8421Y17078D03*
G01X10421Y17078D03*
G01X10421Y15078D03*
G01X10421Y14078D03*
G01X11421Y17078D03*
G01X12421Y17078D03*
G01X12421Y3078D03*
G01X12421Y2078D03*
G01X13421Y17078D03*
G01X13421Y3078D03*
G01X13421Y2078D03*
G01X14421Y17078D03*
G01X14421Y12078D03*
G01X14421Y11078D03*
G01X14421Y8078D03*
G01X14421Y3078D03*
G01X14421Y2078D03*
G01X15100Y6650D03*
G01X15421Y3078D03*
G01X15421Y1078D03*
G01X16421Y1078D03*
G01X17421Y15078D03*
G01X17421Y14078D03*
G01X17421Y13078D03*
G01X17421Y12078D03*
G01X17421Y11078D03*
G01X17421Y10078D03*
G01X17421Y9078D03*
G01X17421Y8078D03*
G01X17421Y7078D03*
G01X17421Y6078D03*
G01X17421Y5078D03*
G01X17421Y4078D03*
G01X8150Y14000D03*
G01X7000Y11500D03*
G01X7000Y12000D03*
G01X8650Y10300D03*
G01X8625Y12500D03*
G01X8625Y12125D03*
G01X10000Y12500D03*
G01X10000Y12125D03*
G01X11500Y14750D03*
G01X13000Y14750D03*
G01X12250Y14750D03*
G01X11500Y13250D03*
G01X12250Y13250D03*
G01X13000Y13250D03*
G01X11500Y14000D03*
G01X12250Y14000D03*
G01X13000Y14000D03*
G01X11875Y14375D03*
G01X12625Y14375D03*
G01X11875Y13625D03*
G01X12625Y13625D03*
G01X13421Y8078D03*
G01X12421Y8078D03*
G01X10250Y7625D03*
G01X11250Y7625D03*
G01X10125Y6125D03*
G01X15421Y8078D03*
G01X10421Y16078D03*
G01X11421Y16078D03*
G01X12421Y16078D03*
G01X13421Y16078D03*
G01X14421Y16078D03*
G01X11421Y11078D03*
G54D18*
G01X3500Y4750D03*
G01X4250Y4250D03*
G54D17*
G01X4500Y7250D03*
G01X5750Y7500D03*
G01X10000Y4078D03*
G01X10000Y3078D03*
G01X8500Y3078D03*
G54D42*
G01X1273Y1832D02*
G01X1509Y1832D01*
G01X1273Y4667D02*
G01X1509Y4667D01*
M00*
M02*
