;Layer: Drill PTH
;EasyEDA v6.3.43, 2020-05-12T15:16:01+02:00
;4d644927dd1f4b27a0df6f52f7f7ce2a,accd6950acb14890b3c9ed90e7fce2f1,10
;Gerber Generator version 0.2
M48
INCH,LZ,00.0000
;Holesize 1 = 0.012 INCH
T01C0.012
;Holesize 2 = 0.015 INCH
T02C0.015
;Holesize 3 = 0.024 INCH
T03C0.024
;Holesize 4 = 0.036 INCH
T04C0.036
%
G05
G90
T01
X+008700Y+004450
X+006000Y+001750
X+005750Y+013000
X+006300Y+013300
X+004750Y+006000
X+002250Y+004750
X+003000Y+004000
X+003500Y+004750
X+004250Y+004250
X+004500Y+007250
X+005750Y+007500
T02
X+007250Y+002000
X+006900Y+016500
X+006900Y+015500
X+007000Y+003750
X+007250Y+000750
X+006400Y+003150
X+011250Y+002078
X+011250Y+003078
X+011000Y+000650
X+010000Y+000650
X+009000Y+000650
X+008000Y+000650
X+010000Y+002000
X+000350Y+018600
X+002375Y+018875
X+016750Y+013750
X+014421Y+016578
X+002750Y+001250
X+008500Y+013250
X+006000Y+002250
X+007250Y+004875
X+004300Y+005500
X+006750Y+006000
X+015000Y+015000
X+009000Y+006750
X+015250Y+014750
X+006000Y+001250
X+013000Y+011000
X+017000Y+003250
X+015700Y+004500
X+009250Y+005500
X+015700Y+005500
X+009000Y+009000
X+008600Y+014350
X+007421Y+017078
X+008421Y+017078
X+010421Y+017078
X+010421Y+015078
X+010421Y+014078
X+011421Y+017078
X+012421Y+017078
X+012421Y+003078
X+012421Y+002078
X+013421Y+017078
X+013421Y+003078
X+013421Y+002078
X+014421Y+017078
X+014421Y+012078
X+014421Y+011078
X+014421Y+008078
X+014421Y+003078
X+014421Y+002078
X+015100Y+006650
X+015421Y+003078
X+015421Y+001078
X+016421Y+001078
X+017421Y+015078
X+017421Y+014078
X+017421Y+013078
X+017421Y+012078
X+017421Y+011078
X+017421Y+010078
X+017421Y+009078
X+017421Y+008078
X+017421Y+007078
X+017421Y+006078
X+017421Y+005078
X+017421Y+004078
X+008150Y+014000
X+007000Y+011500
X+007000Y+012000
X+008650Y+010300
X+008625Y+012500
X+008625Y+012125
X+010000Y+012500
X+010000Y+012125
X+011500Y+014750
X+013000Y+014750
X+012250Y+014750
X+011500Y+013250
X+012250Y+013250
X+013000Y+013250
X+011500Y+014000
X+012250Y+014000
X+013000Y+014000
X+011875Y+014375
X+012625Y+014375
X+011875Y+013625
X+012625Y+013625
X+013421Y+008078
X+012421Y+008078
X+010250Y+007625
X+011250Y+007625
X+010125Y+006125
X+015421Y+008078
X+010421Y+016078
X+011421Y+016078
X+012421Y+016078
X+013421Y+016078
X+014421Y+016078
X+011421Y+011078
X+010000Y+004078
X+010000Y+003078
X+008500Y+003078
T03
X+001293Y+001832G85X+001490Y+001832
X+001293Y+004667G85X+001490Y+004667
T04
X+005206Y+010163
X+003785Y+010127
X+003781Y+008748
M30
