G04 Layer: TopSilkLayer*
G04 EasyEDA v6.3.43, 2020-05-12T15:16:01+02:00*
G04 4d644927dd1f4b27a0df6f52f7f7ce2a,accd6950acb14890b3c9ed90e7fce2f1,10*
G04 Gerber Generator version 0.2*
G04 Scale: 100 percent, Rotated: No, Reflected: No *
G04 Dimensions in inches *
G04 leading zeros omitted , absolute positions ,2 integer and 4 decimal *
%FSLAX24Y24*%
%MOIN*%
G90*
G70D02*

%ADD10C,0.010000*%
%ADD43C,0.004000*%
%ADD44C,0.007874*%
%ADD45C,0.005000*%
%ADD46C,0.005910*%
%ADD47C,0.006000*%
%ADD48C,0.003940*%
%ADD49C,0.009843*%
%ADD50C,0.003937*%
%ADD51C,0.011810*%
%ADD52C,0.005906*%

%LPD*%

%LPD*%
G36*
G01X16514Y9274D02*
G01X16260Y9274D01*
G01X16250Y9250D01*
G01X16245Y9233D01*
G01X16239Y9207D01*
G01X16233Y9174D01*
G01X16227Y9139D01*
G01X16215Y9053D01*
G01X16188Y9026D01*
G01X16171Y9014D01*
G01X16146Y9000D01*
G01X16116Y8987D01*
G01X16085Y8976D01*
G01X16010Y8952D01*
G01X15902Y9023D01*
G01X15795Y9093D01*
G01X15700Y9003D01*
G01X15605Y8912D01*
G01X15754Y8710D01*
G01X15724Y8634D01*
G01X15710Y8603D01*
G01X15695Y8573D01*
G01X15681Y8550D01*
G01X15670Y8536D01*
G01X15646Y8513D01*
G01X15557Y8502D01*
G01X15521Y8497D01*
G01X15487Y8491D01*
G01X15460Y8486D01*
G01X15443Y8481D01*
G01X15417Y8471D01*
G01X15417Y8229D01*
G01X15443Y8219D01*
G01X15460Y8215D01*
G01X15486Y8210D01*
G01X15519Y8204D01*
G01X15589Y8194D01*
G01X15620Y8188D01*
G01X15644Y8183D01*
G01X15658Y8178D01*
G01X15668Y8166D01*
G01X15682Y8144D01*
G01X15697Y8112D01*
G01X15714Y8076D01*
G01X15751Y7986D01*
G01X15605Y7788D01*
G01X15700Y7698D01*
G01X15795Y7607D01*
G01X15901Y7677D01*
G01X16007Y7746D01*
G01X16052Y7717D01*
G01X16098Y7689D01*
G01X16147Y7795D01*
G01X16158Y7818D01*
G01X16170Y7844D01*
G01X16206Y7925D01*
G01X16218Y7951D01*
G01X16228Y7975D01*
G01X16237Y7997D01*
G01X16277Y8092D01*
G01X16206Y8166D01*
G01X16135Y8239D01*
G01X16123Y8301D01*
G01X16111Y8362D01*
G01X16151Y8489D01*
G01X16212Y8539D01*
G01X16272Y8590D01*
G01X16333Y8601D01*
G01X16393Y8611D01*
G01X16448Y8600D01*
G01X16503Y8588D01*
G01X16563Y8538D01*
G01X16622Y8489D01*
G01X16643Y8425D01*
G01X16662Y8362D01*
G01X16650Y8301D01*
G01X16638Y8239D01*
G01X16567Y8166D01*
G01X16496Y8092D01*
G01X16537Y7997D01*
G01X16546Y7975D01*
G01X16556Y7951D01*
G01X16568Y7925D01*
G01X16604Y7844D01*
G01X16615Y7818D01*
G01X16626Y7795D01*
G01X16676Y7689D01*
G01X16721Y7717D01*
G01X16767Y7746D01*
G01X16873Y7677D01*
G01X16978Y7607D01*
G01X17074Y7698D01*
G01X17169Y7788D01*
G01X17023Y7986D01*
G01X17060Y8076D01*
G01X17076Y8112D01*
G01X17092Y8144D01*
G01X17106Y8166D01*
G01X17116Y8178D01*
G01X17130Y8183D01*
G01X17154Y8188D01*
G01X17185Y8194D01*
G01X17255Y8204D01*
G01X17288Y8210D01*
G01X17314Y8215D01*
G01X17331Y8219D01*
G01X17357Y8229D01*
G01X17357Y8471D01*
G01X17331Y8481D01*
G01X17314Y8486D01*
G01X17287Y8491D01*
G01X17253Y8497D01*
G01X17216Y8502D01*
G01X17127Y8513D01*
G01X17104Y8536D01*
G01X17093Y8550D01*
G01X17078Y8573D01*
G01X17064Y8603D01*
G01X17050Y8634D01*
G01X17019Y8710D01*
G01X17169Y8912D01*
G01X16978Y9093D01*
G01X16871Y9023D01*
G01X16764Y8952D01*
G01X16689Y8976D01*
G01X16658Y8987D01*
G01X16628Y9000D01*
G01X16603Y9014D01*
G01X16586Y9026D01*
G01X16558Y9053D01*
G01X16546Y9139D01*
G01X16541Y9174D01*
G01X16535Y9207D01*
G01X16529Y9233D01*
G01X16524Y9250D01*
G01X16514Y9274D01*
G37*

%LPD*%
G36*
G01X17560Y7426D02*
G01X17497Y7426D01*
G01X17427Y7360D01*
G01X17427Y7300D01*
G01X17428Y7275D01*
G01X17432Y7249D01*
G01X17438Y7226D01*
G01X17445Y7209D01*
G01X17463Y7176D01*
G01X17600Y7176D01*
G01X17622Y7210D01*
G01X17611Y7226D01*
G01X17600Y7243D01*
G01X17535Y7210D01*
G01X17507Y7220D01*
G01X17480Y7230D01*
G01X17480Y7276D01*
G01X17637Y7276D01*
G01X17637Y7359D01*
G01X17599Y7392D01*
G01X17560Y7426D01*
G37*

%LPC*%
G36*
G01X17524Y7376D02*
G01X17515Y7376D01*
G01X17506Y7373D01*
G01X17497Y7369D01*
G01X17491Y7365D01*
G01X17487Y7360D01*
G01X17483Y7353D01*
G01X17481Y7346D01*
G01X17480Y7340D01*
G01X17480Y7326D01*
G01X17589Y7326D01*
G01X17567Y7351D01*
G01X17557Y7361D01*
G01X17545Y7369D01*
G01X17534Y7375D01*
G01X17524Y7376D01*
G37*

%LPD*%
G36*
G01X17202Y7407D02*
G01X17128Y7429D01*
G01X17103Y7409D01*
G01X17077Y7389D01*
G01X17077Y7408D01*
G01X17076Y7415D01*
G01X17073Y7421D01*
G01X17068Y7425D01*
G01X17063Y7426D01*
G01X17056Y7426D01*
G01X17049Y7423D01*
G01X17042Y7419D01*
G01X17037Y7415D01*
G01X17032Y7402D01*
G01X17028Y7374D01*
G01X17026Y7336D01*
G01X17025Y7290D01*
G01X17025Y7176D01*
G01X17077Y7176D01*
G01X17077Y7339D01*
G01X17128Y7379D01*
G01X17145Y7370D01*
G01X17161Y7360D01*
G01X17202Y7407D01*
G37*

%LPD*%
G36*
G01X16625Y7423D02*
G01X16615Y7425D01*
G01X16606Y7424D01*
G01X16582Y7418D01*
G01X16571Y7414D01*
G01X16559Y7408D01*
G01X16546Y7399D01*
G01X16533Y7389D01*
G01X16523Y7378D01*
G01X16502Y7351D01*
G01X16501Y7301D01*
G01X16501Y7251D01*
G01X16555Y7176D01*
G01X16674Y7176D01*
G01X16692Y7209D01*
G01X16710Y7241D01*
G01X16710Y7375D01*
G01X16672Y7401D01*
G01X16655Y7410D01*
G01X16639Y7418D01*
G01X16625Y7423D01*
G37*

%LPC*%
G36*
G01X16649Y7368D02*
G01X16593Y7378D01*
G01X16551Y7328D01*
G01X16562Y7235D01*
G01X16611Y7230D01*
G01X16660Y7224D01*
G01X16649Y7368D01*
G37*

%LPD*%
G36*
G01X16381Y7425D02*
G01X16366Y7426D01*
G01X16352Y7424D01*
G01X16335Y7421D01*
G01X16318Y7415D01*
G01X16304Y7408D01*
G01X16273Y7391D01*
G01X16273Y7354D01*
G01X16275Y7338D01*
G01X16279Y7321D01*
G01X16286Y7307D01*
G01X16294Y7296D01*
G01X16315Y7276D01*
G01X16413Y7276D01*
G01X16413Y7226D01*
G01X16386Y7215D01*
G01X16359Y7205D01*
G01X16277Y7241D01*
G01X16266Y7231D01*
G01X16256Y7221D01*
G01X16276Y7199D01*
G01X16295Y7176D01*
G01X16426Y7176D01*
G01X16447Y7201D01*
G01X16468Y7225D01*
G01X16463Y7263D01*
G01X16457Y7301D01*
G01X16326Y7332D01*
G01X16326Y7380D01*
G01X16385Y7369D01*
G01X16445Y7359D01*
G01X16467Y7391D01*
G01X16432Y7409D01*
G01X16416Y7415D01*
G01X16399Y7421D01*
G01X16381Y7425D01*
G37*

%LPD*%
G36*
G01X15987Y7417D02*
G01X15906Y7423D01*
G01X15906Y7176D01*
G01X15959Y7176D01*
G01X15959Y7356D01*
G01X16019Y7378D01*
G01X16041Y7349D01*
G01X16064Y7320D01*
G01X16064Y7176D01*
G01X16120Y7176D01*
G01X16105Y7377D01*
G01X16086Y7394D01*
G01X16068Y7412D01*
G01X15987Y7417D01*
G37*

%LPD*%
G36*
G01X15784Y7426D02*
G01X15714Y7426D01*
G01X15644Y7360D01*
G01X15644Y7232D01*
G01X15708Y7176D01*
G01X15817Y7176D01*
G01X15827Y7193D01*
G01X15838Y7210D01*
G01X15827Y7226D01*
G01X15817Y7243D01*
G01X15781Y7226D01*
G01X15747Y7207D01*
G01X15722Y7228D01*
G01X15712Y7236D01*
G01X15704Y7246D01*
G01X15698Y7255D01*
G01X15696Y7262D01*
G01X15696Y7276D01*
G01X15854Y7276D01*
G01X15854Y7360D01*
G01X15784Y7426D01*
G37*

%LPC*%
G36*
G01X15756Y7373D02*
G01X15741Y7374D01*
G01X15727Y7373D01*
G01X15716Y7370D01*
G01X15709Y7366D01*
G01X15704Y7360D01*
G01X15700Y7353D01*
G01X15697Y7347D01*
G01X15696Y7340D01*
G01X15696Y7326D01*
G01X15804Y7326D01*
G01X15790Y7368D01*
G01X15756Y7373D01*
G37*

%LPD*%
G36*
G01X15261Y7423D02*
G01X15251Y7425D01*
G01X15242Y7424D01*
G01X15231Y7421D01*
G01X15218Y7418D01*
G01X15207Y7414D01*
G01X15195Y7408D01*
G01X15182Y7399D01*
G01X15170Y7389D01*
G01X15159Y7378D01*
G01X15138Y7351D01*
G01X15138Y7301D01*
G01X15137Y7251D01*
G01X15191Y7176D01*
G01X15310Y7176D01*
G01X15328Y7209D01*
G01X15347Y7241D01*
G01X15347Y7375D01*
G01X15308Y7401D01*
G01X15291Y7410D01*
G01X15275Y7418D01*
G01X15261Y7423D01*
G37*

%LPC*%
G36*
G01X15258Y7373D02*
G01X15230Y7378D01*
G01X15208Y7353D01*
G01X15187Y7328D01*
G01X15193Y7282D01*
G01X15198Y7235D01*
G01X15247Y7230D01*
G01X15296Y7224D01*
G01X15285Y7368D01*
G01X15258Y7373D01*
G37*

%LPD*%
G36*
G01X16785Y7422D02*
G01X16763Y7429D01*
G01X16763Y7214D01*
G01X16788Y7194D01*
G01X16801Y7187D01*
G01X16817Y7181D01*
G01X16835Y7177D01*
G01X16853Y7175D01*
G01X16872Y7176D01*
G01X16934Y7176D01*
G01X16974Y7177D01*
G01X16964Y7415D01*
G01X16943Y7422D01*
G01X16922Y7428D01*
G01X16917Y7332D01*
G01X16911Y7235D01*
G01X16824Y7235D01*
G01X16806Y7415D01*
G01X16785Y7422D01*
G37*

%LPD*%
G36*
G01X17335Y7423D02*
G01X17322Y7425D01*
G01X17309Y7424D01*
G01X17293Y7420D01*
G01X17277Y7414D01*
G01X17261Y7407D01*
G01X17247Y7398D01*
G01X17232Y7388D01*
G01X17221Y7378D01*
G01X17213Y7369D01*
G01X17208Y7358D01*
G01X17204Y7339D01*
G01X17201Y7316D01*
G01X17200Y7292D01*
G01X17200Y7232D01*
G01X17233Y7203D01*
G01X17267Y7174D01*
G01X17325Y7180D01*
G01X17383Y7185D01*
G01X17383Y7233D01*
G01X17261Y7235D01*
G01X17256Y7288D01*
G01X17250Y7341D01*
G01X17288Y7360D01*
G01X17326Y7380D01*
G01X17345Y7362D01*
G01X17363Y7344D01*
G01X17387Y7362D01*
G01X17410Y7381D01*
G01X17379Y7403D01*
G01X17365Y7412D01*
G01X17350Y7419D01*
G01X17335Y7423D01*
G37*

%LPD*%
G36*
G01X16291Y7127D02*
G01X16238Y7127D01*
G01X16238Y7016D01*
G01X16138Y7030D01*
G01X16081Y6953D01*
G01X16081Y6851D01*
G01X16107Y6815D01*
G01X16133Y6780D01*
G01X16291Y6782D01*
G01X16291Y7127D01*
G37*

%LPC*%
G36*
G01X16230Y6969D02*
G01X16152Y6979D01*
G01X16140Y6934D01*
G01X16128Y6888D01*
G01X16146Y6862D01*
G01X16164Y6835D01*
G01X16230Y6835D01*
G01X16230Y6969D01*
G37*

%LPD*%
G36*
G01X15799Y7027D02*
G01X15742Y7027D01*
G01X15719Y7026D01*
G01X15698Y7023D01*
G01X15682Y7020D01*
G01X15673Y7016D01*
G01X15668Y7010D01*
G01X15665Y7004D01*
G01X15662Y6997D01*
G01X15661Y6991D01*
G01X15661Y6977D01*
G01X15801Y6977D01*
G01X15801Y6927D01*
G01X15686Y6927D01*
G01X15665Y6907D01*
G01X15657Y6896D01*
G01X15650Y6882D01*
G01X15646Y6865D01*
G01X15644Y6849D01*
G01X15644Y6811D01*
G01X15707Y6779D01*
G01X15781Y6780D01*
G01X15854Y6781D01*
G01X15854Y6975D01*
G01X15826Y7001D01*
G01X15799Y7027D01*
G37*

%LPC*%
G36*
G01X15804Y6877D02*
G01X15696Y6877D01*
G01X15696Y6825D01*
G01X15790Y6835D01*
G01X15804Y6877D01*
G37*

%LPD*%
G36*
G01X16813Y7025D02*
G01X16794Y7026D01*
G01X16760Y7022D01*
G01X16744Y7019D01*
G01X16732Y7016D01*
G01X16710Y7007D01*
G01X16730Y6977D01*
G01X16850Y6977D01*
G01X16850Y6927D01*
G01X16729Y6927D01*
G01X16711Y6895D01*
G01X16704Y6881D01*
G01X16698Y6867D01*
G01X16694Y6855D01*
G01X16693Y6846D01*
G01X16695Y6838D01*
G01X16701Y6827D01*
G01X16709Y6815D01*
G01X16720Y6804D01*
G01X16747Y6778D01*
G01X16825Y6780D01*
G01X16903Y6781D01*
G01X16903Y6992D01*
G01X16869Y7009D01*
G01X16852Y7016D01*
G01X16833Y7021D01*
G01X16813Y7025D01*
G37*

%LPC*%
G36*
G01X16853Y6877D02*
G01X16745Y6877D01*
G01X16745Y6825D01*
G01X16839Y6835D01*
G01X16853Y6877D01*
G37*

%LPD*%
G36*
G01X17287Y7027D02*
G01X17205Y7027D01*
G01X17175Y6994D01*
G01X17144Y6962D01*
G01X17144Y6842D01*
G01X17175Y6809D01*
G01X17205Y6777D01*
G01X17301Y6777D01*
G01X17322Y6802D01*
G01X17344Y6827D01*
G01X17329Y6829D01*
G01X17319Y6830D01*
G01X17303Y6831D01*
G01X17284Y6832D01*
G01X17263Y6833D01*
G01X17212Y6835D01*
G01X17198Y6875D01*
G01X17348Y6885D01*
G01X17354Y6922D01*
G01X17359Y6958D01*
G01X17323Y6992D01*
G01X17287Y7027D01*
G37*

%LPC*%
G36*
G01X17284Y6977D02*
G01X17200Y6977D01*
G01X17200Y6927D01*
G01X17304Y6927D01*
G01X17293Y6952D01*
G01X17284Y6977D01*
G37*

%LPD*%
G36*
G01X15985Y7021D02*
G01X15906Y7024D01*
G01X15906Y6777D01*
G01X15957Y6777D01*
G01X15967Y6968D01*
G01X16072Y6986D01*
G01X16068Y7002D01*
G01X16064Y7019D01*
G01X15985Y7021D01*
G37*

%LPD*%
G36*
G01X15562Y7414D02*
G01X15399Y7421D01*
G01X15399Y6777D01*
G01X15450Y6777D01*
G01X15455Y6873D01*
G01X15460Y6968D01*
G01X15526Y6980D01*
G01X15541Y6958D01*
G01X15547Y6943D01*
G01X15552Y6919D01*
G01X15555Y6888D01*
G01X15556Y6856D01*
G01X15556Y6777D01*
G01X15609Y6777D01*
G01X15609Y6975D01*
G01X15551Y7030D01*
G01X15501Y7023D01*
G01X15452Y7016D01*
G01X15452Y7188D01*
G01X15562Y7172D01*
G01X15609Y7233D01*
G01X15609Y7353D01*
G01X15585Y7384D01*
G01X15562Y7414D01*
G37*

%LPC*%
G36*
G01X15511Y7375D02*
G01X15504Y7376D01*
G01X15497Y7375D01*
G01X15489Y7369D01*
G01X15479Y7362D01*
G01X15470Y7353D01*
G01X15449Y7328D01*
G01X15460Y7235D01*
G01X15548Y7235D01*
G01X15559Y7328D01*
G01X15538Y7353D01*
G01X15529Y7362D01*
G01X15519Y7369D01*
G01X15511Y7375D01*
G37*

%LPD*%
G36*
G01X16647Y6902D02*
G01X16691Y7029D01*
G01X16633Y7018D01*
G01X16615Y6957D01*
G01X16607Y6933D01*
G01X16599Y6911D01*
G01X16592Y6895D01*
G01X16586Y6886D01*
G01X16575Y6876D01*
G01X16531Y7027D01*
G01X16486Y7027D01*
G01X16465Y6964D01*
G01X16456Y6939D01*
G01X16446Y6916D01*
G01X16438Y6898D01*
G01X16431Y6888D01*
G01X16418Y6875D01*
G01X16378Y7027D01*
G01X16323Y7027D01*
G01X16333Y6998D01*
G01X16339Y6979D01*
G01X16349Y6950D01*
G01X16361Y6915D01*
G01X16373Y6877D01*
G01X16404Y6785D01*
G01X16453Y6785D01*
G01X16479Y6869D01*
G01X16505Y6952D01*
G01X16534Y6870D01*
G01X16562Y6788D01*
G01X16602Y6776D01*
G01X16647Y6902D01*
G37*

%LPD*%
G36*
G01X17037Y7021D02*
G01X16954Y7023D01*
G01X16959Y6905D01*
G01X16964Y6788D01*
G01X16986Y6781D01*
G01X17007Y6774D01*
G01X17008Y6855D01*
G01X17009Y6888D01*
G01X17012Y6917D01*
G01X17016Y6940D01*
G01X17021Y6954D01*
G01X17029Y6962D01*
G01X17043Y6969D01*
G01X17060Y6976D01*
G01X17077Y6979D01*
G01X17121Y6985D01*
G01X17121Y7019D01*
G01X17037Y7021D01*
G37*

%LPD*%
G54D43*
G01X3988Y13466D02*
G01X3988Y13403D01*
G01X3988Y14104D02*
G01X3988Y14041D01*
G01X5011Y14104D02*
G01X5011Y14025D01*
G01X5011Y13396D02*
G01X5011Y13470D01*
G01X5011Y13396D02*
G01X3988Y13396D01*
G01X3988Y13396D01*
G01X5011Y14104D02*
G01X3988Y14104D01*
G54D10*
G01X2090Y17909D02*
G01X909Y17909D01*
G01X2090Y19090D02*
G01X909Y19090D01*
G01X9045Y1344D02*
G01X8021Y1344D01*
G01X8021Y1698D01*
G01X8021Y2801D02*
G01X8021Y3155D01*
G01X9045Y3155D01*
G01X7814Y12110D02*
G01X7184Y12110D01*
G01X7186Y11381D02*
G01X7186Y10889D01*
G01X7816Y11381D02*
G01X7816Y10889D01*
G01X7184Y11618D02*
G01X7184Y12110D01*
G01X7814Y11618D02*
G01X7814Y12110D01*
G01X7816Y10889D02*
G01X7186Y10889D01*
G01X7184Y12389D02*
G01X7814Y12389D01*
G01X7812Y13118D02*
G01X7812Y13610D01*
G01X7182Y13118D02*
G01X7182Y13610D01*
G01X7814Y12881D02*
G01X7814Y12389D01*
G01X7184Y12881D02*
G01X7184Y12389D01*
G01X7182Y13610D02*
G01X7812Y13610D01*
G01X5860Y12185D02*
G01X5860Y12814D01*
G01X5131Y12812D02*
G01X4639Y12812D01*
G01X5131Y12183D02*
G01X4639Y12183D01*
G01X5368Y12814D02*
G01X5860Y12814D01*
G01X5368Y12185D02*
G01X5860Y12185D01*
G01X4639Y12183D02*
G01X4639Y12812D01*
G01X11550Y1250D02*
G01X11750Y1050D01*
G01X12950Y1250D02*
G01X12750Y1050D01*
G01X12750Y3450D02*
G01X12950Y3250D01*
G01X11750Y3450D02*
G01X11550Y3250D01*
G01X12958Y1029D02*
G01X11541Y1029D01*
G01X11541Y1029D02*
G01X11541Y3470D01*
G01X12958Y3470D02*
G01X12958Y1029D01*
G01X11541Y3470D02*
G01X12958Y3470D01*
G01X13550Y1250D02*
G01X13750Y1050D01*
G01X14950Y1250D02*
G01X14750Y1050D01*
G01X14750Y3450D02*
G01X14950Y3250D01*
G01X13750Y3450D02*
G01X13550Y3250D01*
G01X14958Y1029D02*
G01X13541Y1029D01*
G01X13541Y1029D02*
G01X13541Y3470D01*
G01X14958Y3470D02*
G01X14958Y1029D01*
G01X13541Y3470D02*
G01X14958Y3470D01*
G01X11685Y5244D02*
G01X11425Y5244D01*
G01X11685Y5244D01*
G01X11425Y5244D01*
G01X11425Y5565D01*
G01X12574Y5565D02*
G01X12574Y5244D01*
G01X12314Y5244D01*
G54D44*
G01X12118Y5854D02*
G01X11881Y5854D01*
G54D10*
G01X13685Y5244D02*
G01X13425Y5244D01*
G01X13685Y5244D01*
G01X13425Y5244D01*
G01X13425Y5565D01*
G01X14574Y5565D02*
G01X14574Y5244D01*
G01X14314Y5244D01*
G54D44*
G01X14118Y5854D02*
G01X13881Y5854D01*
G54D45*
G01X9100Y17244D02*
G01X9100Y19901D01*
G01X16186Y19901D01*
G01X16186Y17244D01*
G01X9100Y10157D02*
G01X9100Y9862D01*
G01X10084Y9862D01*
G01X15202Y9862D02*
G01X16186Y9862D01*
G01X16186Y10157D01*
G01X9116Y17421D02*
G01X16171Y17421D01*
G54D10*
G01X9100Y19901D02*
G01X16186Y19901D01*
G01X16186Y9862D01*
G01X9100Y9862D01*
G01X9100Y19901D01*
G01X9115Y17421D02*
G01X16171Y17421D01*
G01X3444Y2090D02*
G01X2865Y2090D01*
G01X3444Y1409D02*
G01X2865Y1409D01*
G01X3444Y1409D02*
G01X3444Y2090D01*
G01X2634Y2090D02*
G01X2175Y2090D01*
G01X2625Y1409D02*
G01X2175Y1409D01*
G01X2175Y1409D02*
G01X2034Y1550D01*
G01X2034Y1950D01*
G01X2175Y2090D01*
G54D46*
G01X2805Y1600D02*
G01X2805Y1909D01*
G01X2705Y1809D01*
G01X2705Y1669D01*
G01X2805Y1569D01*
G01X2805Y1659D01*
G01X2755Y1840D02*
G01X2755Y1640D01*
G54D47*
G01X15810Y1561D02*
G01X17188Y1561D01*
G01X15810Y2938D02*
G01X17188Y2938D01*
G54D44*
G01X9342Y4684D02*
G01X8909Y4684D01*
G01X8909Y5315D01*
G01X9342Y5315D01*
G01X9657Y4684D02*
G01X10090Y4684D01*
G01X10090Y5078D01*
G01X10090Y5315D01*
G01X9657Y5315D01*
G01X7842Y4684D02*
G01X7409Y4684D01*
G01X7409Y5315D01*
G01X7842Y5315D01*
G01X8157Y4684D02*
G01X8590Y4684D01*
G01X8590Y5078D01*
G01X8590Y5315D01*
G01X8157Y5315D01*
G54D10*
G01X3150Y5760D02*
G01X3300Y5760D01*
G01X3300Y5760D02*
G01X3850Y5760D01*
G01X3150Y5240D02*
G01X3300Y5240D01*
G01X3300Y5240D02*
G01X3850Y5240D01*
G01X3696Y5736D02*
G01X3696Y5255D01*
G54D44*
G01X12157Y7315D02*
G01X12590Y7315D01*
G01X12590Y6684D01*
G01X12157Y6684D01*
G01X11842Y7315D02*
G01X11409Y7315D01*
G01X11409Y6921D01*
G01X11409Y6684D01*
G01X11842Y6684D01*
G01X6815Y1317D02*
G01X6815Y884D01*
G01X6184Y884D01*
G01X6184Y1317D01*
G01X6815Y1632D02*
G01X6815Y2065D01*
G01X6421Y2065D01*
G01X6184Y2065D01*
G01X6184Y1632D01*
G54D10*
G01X5350Y6150D02*
G01X5700Y6150D01*
G01X5800Y6250D02*
G01X5800Y6750D01*
G01X5700Y6850D02*
G01X5350Y6850D01*
G01X5150Y6150D02*
G01X4800Y6150D01*
G01X4700Y6250D02*
G01X4700Y6750D01*
G01X4800Y6850D02*
G01X5150Y6850D01*
G54D48*
G01X4092Y3263D02*
G01X4092Y3736D01*
G01X4407Y3263D02*
G01X4407Y3736D01*
G01X2592Y3263D02*
G01X2592Y3736D01*
G01X2907Y3263D02*
G01X2907Y3736D01*
G01X3342Y3263D02*
G01X3342Y3736D01*
G01X3657Y3263D02*
G01X3657Y3736D01*
G54D10*
G01X139Y4669D02*
G01X139Y1834D01*
G01X1667Y1832D02*
G01X140Y1830D01*
G01X1667Y4667D02*
G01X140Y4669D01*
G01X1668Y4669D02*
G01X1668Y3990D01*
G01X1178Y3990D01*
G01X1178Y2519D01*
G01X1668Y2519D01*
G01X1668Y1830D01*
G54D44*
G01X4903Y5434D02*
G01X4903Y5591D01*
G01X5061Y5591D01*
G01X6438Y5591D02*
G01X6596Y5591D01*
G01X6596Y5434D01*
G01X6438Y3898D02*
G01X6596Y3898D01*
G01X6596Y4055D01*
G01X5061Y3898D02*
G01X4903Y3898D01*
G01X4903Y4055D01*
G01X3907Y6815D02*
G01X4340Y6815D01*
G01X4340Y6184D01*
G01X3907Y6184D01*
G01X3592Y6815D02*
G01X3159Y6815D01*
G01X3159Y6421D01*
G01X3159Y6184D01*
G01X3592Y6184D01*
G54D10*
G01X5959Y9716D02*
G01X6432Y9716D01*
G01X6432Y9382D01*
G01X5959Y9382D01*
G54D44*
G01X16342Y3684D02*
G01X15909Y3684D01*
G01X15909Y4315D01*
G01X16342Y4315D01*
G01X16657Y3684D02*
G01X17090Y3684D01*
G01X17090Y4078D01*
G01X17090Y4315D01*
G01X16657Y4315D01*
G01X7184Y14907D02*
G01X7184Y15340D01*
G01X7815Y15340D01*
G01X7815Y14907D01*
G01X7184Y14592D02*
G01X7184Y14159D01*
G01X7578Y14159D01*
G01X7815Y14159D01*
G01X7815Y14592D01*
G01X8184Y6657D02*
G01X8184Y7090D01*
G01X8815Y7090D01*
G01X8815Y6657D01*
G01X8184Y6342D02*
G01X8184Y5909D01*
G01X8578Y5909D01*
G01X8815Y5909D01*
G01X8815Y6342D01*
G01X7815Y9816D02*
G01X7815Y9383D01*
G01X7184Y9383D01*
G01X7184Y9816D01*
G01X7815Y10131D02*
G01X7815Y10564D01*
G01X7421Y10564D01*
G01X7184Y10564D01*
G01X7184Y10131D01*
G01X9184Y6657D02*
G01X9184Y7090D01*
G01X9814Y7090D01*
G01X9814Y6657D01*
G01X9184Y6342D02*
G01X9184Y5909D01*
G01X9578Y5909D01*
G01X9814Y5909D01*
G01X9814Y6342D01*
G01X7815Y6342D02*
G01X7815Y5909D01*
G01X7184Y5909D01*
G01X7184Y6342D01*
G01X7815Y6657D02*
G01X7815Y7090D01*
G01X7421Y7090D01*
G01X7184Y7090D01*
G01X7184Y6657D01*
G01X16342Y4684D02*
G01X15909Y4684D01*
G01X15909Y5315D01*
G01X16342Y5315D01*
G01X16657Y4684D02*
G01X17090Y4684D01*
G01X17090Y5078D01*
G01X17090Y5315D01*
G01X16657Y5315D01*
G01X13842Y6684D02*
G01X13409Y6684D01*
G01X13409Y7315D01*
G01X13842Y7315D01*
G01X14157Y6684D02*
G01X14590Y6684D01*
G01X14590Y7078D01*
G01X14590Y7315D01*
G01X14157Y7315D01*
G54D10*
G01X3600Y12150D02*
G01X3950Y12150D01*
G01X4050Y12250D02*
G01X4050Y12750D01*
G01X3950Y12850D02*
G01X3600Y12850D01*
G01X3400Y12150D02*
G01X3050Y12150D01*
G01X2950Y12250D02*
G01X2950Y12750D01*
G01X3050Y12850D02*
G01X3400Y12850D01*
G01X4150Y1400D02*
G01X4150Y1050D01*
G01X4250Y950D02*
G01X4750Y950D01*
G01X4850Y1050D02*
G01X4850Y1400D01*
G01X4150Y1600D02*
G01X4150Y1950D01*
G01X4250Y2050D02*
G01X4750Y2050D01*
G01X4850Y1950D02*
G01X4850Y1600D01*
G01X7150Y8400D02*
G01X7150Y8050D01*
G01X7250Y7950D02*
G01X7750Y7950D01*
G01X7850Y8050D02*
G01X7850Y8400D01*
G01X7150Y8600D02*
G01X7150Y8950D01*
G01X7250Y9050D02*
G01X7750Y9050D01*
G01X7850Y8950D02*
G01X7850Y8600D01*
G01X1400Y17600D02*
G01X1050Y17600D01*
G01X950Y17500D02*
G01X950Y17000D01*
G01X1050Y16900D02*
G01X1400Y16900D01*
G01X1600Y17600D02*
G01X1950Y17600D01*
G01X2050Y17500D02*
G01X2050Y17000D01*
G01X1950Y16900D02*
G01X1600Y16900D01*
G01X7850Y16350D02*
G01X7850Y16700D01*
G01X7750Y16800D02*
G01X7250Y16800D01*
G01X7150Y16700D02*
G01X7150Y16350D01*
G01X7850Y16150D02*
G01X7850Y15800D01*
G01X7750Y15700D02*
G01X7250Y15700D01*
G01X7150Y15800D02*
G01X7150Y16150D01*
G01X16600Y5650D02*
G01X16950Y5650D01*
G01X17050Y5750D02*
G01X17050Y6250D01*
G01X16950Y6350D02*
G01X16600Y6350D01*
G01X16400Y5650D02*
G01X16050Y5650D01*
G01X15950Y5750D02*
G01X15950Y6250D01*
G01X16050Y6350D02*
G01X16400Y6350D01*
G01X5150Y1400D02*
G01X5150Y1050D01*
G01X5250Y950D02*
G01X5750Y950D01*
G01X5850Y1050D02*
G01X5850Y1400D01*
G01X5150Y1600D02*
G01X5150Y1950D01*
G01X5250Y2050D02*
G01X5750Y2050D01*
G01X5850Y1950D02*
G01X5850Y1600D01*
G54D44*
G01X2592Y434D02*
G01X2159Y434D01*
G01X2159Y1065D01*
G01X2592Y1065D01*
G01X2907Y434D02*
G01X3340Y434D01*
G01X3340Y828D01*
G01X3340Y1065D01*
G01X2907Y1065D01*
G54D49*
G01X9500Y9250D02*
G01X9500Y8836D01*
G01X9500Y9250D02*
G01X9756Y9250D01*
G01X9500Y9053D02*
G01X9656Y9053D01*
G01X9500Y8836D02*
G01X9756Y8836D01*
G01X10160Y9190D02*
G01X10122Y9230D01*
G01X10063Y9250D01*
G01X9984Y9250D01*
G01X9925Y9230D01*
G01X9885Y9190D01*
G01X9885Y9151D01*
G01X9906Y9111D01*
G01X9925Y9092D01*
G01X9964Y9073D01*
G01X10082Y9034D01*
G01X10122Y9013D01*
G01X10142Y8994D01*
G01X10160Y8955D01*
G01X10160Y8896D01*
G01X10122Y8857D01*
G01X10063Y8836D01*
G01X9984Y8836D01*
G01X9925Y8857D01*
G01X9885Y8896D01*
G01X10290Y9250D02*
G01X10290Y8836D01*
G01X10290Y9250D02*
G01X10468Y9250D01*
G01X10527Y9230D01*
G01X10547Y9211D01*
G01X10567Y9171D01*
G01X10567Y9111D01*
G01X10547Y9073D01*
G01X10527Y9053D01*
G01X10468Y9034D01*
G01X10290Y9034D01*
G01X10735Y9250D02*
G01X10952Y9250D01*
G01X10835Y9092D01*
G01X10893Y9092D01*
G01X10932Y9073D01*
G01X10952Y9053D01*
G01X10972Y8994D01*
G01X10972Y8955D01*
G01X10952Y8896D01*
G01X10913Y8857D01*
G01X10853Y8836D01*
G01X10794Y8836D01*
G01X10735Y8857D01*
G01X10717Y8876D01*
G01X10697Y8915D01*
G01X11122Y9151D02*
G01X11122Y9171D01*
G01X11142Y9211D01*
G01X11160Y9230D01*
G01X11201Y9250D01*
G01X11280Y9250D01*
G01X11318Y9230D01*
G01X11339Y9211D01*
G01X11357Y9171D01*
G01X11357Y9132D01*
G01X11339Y9092D01*
G01X11298Y9034D01*
G01X11102Y8836D01*
G01X11377Y8836D01*
G01X12026Y9190D02*
G01X11985Y9230D01*
G01X11927Y9250D01*
G01X11847Y9250D01*
G01X11789Y9230D01*
G01X11750Y9190D01*
G01X11750Y9151D01*
G01X11769Y9111D01*
G01X11789Y9092D01*
G01X11828Y9073D01*
G01X11947Y9034D01*
G01X11985Y9013D01*
G01X12006Y8994D01*
G01X12026Y8955D01*
G01X12026Y8896D01*
G01X11985Y8857D01*
G01X11927Y8836D01*
G01X11847Y8836D01*
G01X11789Y8857D01*
G01X11750Y8896D01*
G01X12156Y8994D02*
G01X12392Y8994D01*
G01X12392Y9034D01*
G01X12372Y9073D01*
G01X12352Y9092D01*
G01X12313Y9111D01*
G01X12253Y9111D01*
G01X12214Y9092D01*
G01X12175Y9053D01*
G01X12156Y8994D01*
G01X12156Y8955D01*
G01X12175Y8896D01*
G01X12214Y8857D01*
G01X12253Y8836D01*
G01X12313Y8836D01*
G01X12352Y8857D01*
G01X12392Y8896D01*
G01X12522Y9111D02*
G01X12522Y8836D01*
G01X12522Y9034D02*
G01X12581Y9092D01*
G01X12619Y9111D01*
G01X12678Y9111D01*
G01X12718Y9092D01*
G01X12738Y9034D01*
G01X12738Y8836D01*
G01X13085Y9053D02*
G01X13064Y9092D01*
G01X13006Y9111D01*
G01X12947Y9111D01*
G01X12888Y9092D01*
G01X12868Y9053D01*
G01X12888Y9013D01*
G01X12927Y8994D01*
G01X13026Y8975D01*
G01X13064Y8955D01*
G01X13085Y8915D01*
G01X13085Y8896D01*
G01X13064Y8857D01*
G01X13006Y8836D01*
G01X12947Y8836D01*
G01X12888Y8857D01*
G01X12868Y8896D01*
G01X13313Y9111D02*
G01X13273Y9092D01*
G01X13234Y9053D01*
G01X13214Y8994D01*
G01X13214Y8955D01*
G01X13234Y8896D01*
G01X13273Y8857D01*
G01X13313Y8836D01*
G01X13372Y8836D01*
G01X13410Y8857D01*
G01X13451Y8896D01*
G01X13469Y8955D01*
G01X13469Y8994D01*
G01X13451Y9053D01*
G01X13410Y9092D01*
G01X13372Y9111D01*
G01X13313Y9111D01*
G01X13600Y9111D02*
G01X13600Y8836D01*
G01X13600Y8994D02*
G01X13619Y9053D01*
G01X13659Y9092D01*
G01X13698Y9111D01*
G01X13757Y9111D01*
G01X13888Y9250D02*
G01X13888Y8836D01*
G01X13888Y9250D02*
G01X14163Y8836D01*
G01X14163Y9250D02*
G01X14163Y8836D01*
G01X14392Y9111D02*
G01X14352Y9092D01*
G01X14313Y9053D01*
G01X14293Y8994D01*
G01X14293Y8955D01*
G01X14313Y8896D01*
G01X14352Y8857D01*
G01X14392Y8836D01*
G01X14451Y8836D01*
G01X14489Y8857D01*
G01X14530Y8896D01*
G01X14548Y8955D01*
G01X14548Y8994D01*
G01X14530Y9053D01*
G01X14489Y9092D01*
G01X14451Y9111D01*
G01X14392Y9111D01*
G01X14914Y9250D02*
G01X14914Y8836D01*
G01X14914Y9053D02*
G01X14876Y9092D01*
G01X14836Y9111D01*
G01X14777Y9111D01*
G01X14738Y9092D01*
G01X14698Y9053D01*
G01X14678Y8994D01*
G01X14678Y8955D01*
G01X14698Y8896D01*
G01X14738Y8857D01*
G01X14777Y8836D01*
G01X14836Y8836D01*
G01X14876Y8857D01*
G01X14914Y8896D01*
G01X15044Y8994D02*
G01X15281Y8994D01*
G01X15281Y9034D01*
G01X15261Y9073D01*
G01X15242Y9092D01*
G01X15202Y9111D01*
G01X15143Y9111D01*
G01X15103Y9092D01*
G01X15064Y9053D01*
G01X15044Y8994D01*
G01X15044Y8955D01*
G01X15064Y8896D01*
G01X15103Y8857D01*
G01X15143Y8836D01*
G01X15202Y8836D01*
G01X15242Y8857D01*
G01X15281Y8896D01*
G01X9500Y8500D02*
G01X9500Y8086D01*
G01X9500Y8500D02*
G01X9677Y8500D01*
G01X9735Y8480D01*
G01X9756Y8461D01*
G01X9776Y8421D01*
G01X9776Y8382D01*
G01X9756Y8342D01*
G01X9735Y8323D01*
G01X9677Y8303D01*
G01X9500Y8303D01*
G01X9638Y8303D02*
G01X9776Y8086D01*
G01X9906Y8500D02*
G01X9906Y8086D01*
G01X9906Y8500D02*
G01X10160Y8500D01*
G01X9906Y8303D02*
G01X10063Y8303D01*
G01X9906Y8086D02*
G01X10160Y8086D01*
G01X10290Y8500D02*
G01X10448Y8086D01*
G01X10606Y8500D02*
G01X10448Y8086D01*
G01X11039Y8421D02*
G01X11078Y8440D01*
G01X11138Y8500D01*
G01X11138Y8086D01*
G01X11286Y8184D02*
G01X11268Y8165D01*
G01X11286Y8146D01*
G01X11306Y8165D01*
G01X11286Y8184D01*
G01X11634Y8500D02*
G01X11436Y8225D01*
G01X11731Y8225D01*
G01X11634Y8500D02*
G01X11634Y8086D01*
G54D52*
G01X6350Y12548D02*
G01X6321Y12576D01*
G01X6278Y12592D01*
G01X6221Y12592D01*
G01X6178Y12576D01*
G01X6150Y12548D01*
G01X6150Y12519D01*
G01X6163Y12492D01*
G01X6178Y12476D01*
G01X6207Y12463D01*
G01X6292Y12434D01*
G01X6321Y12419D01*
G01X6336Y12405D01*
G01X6350Y12376D01*
G01X6350Y12334D01*
G01X6321Y12305D01*
G01X6278Y12290D01*
G01X6221Y12290D01*
G01X6178Y12305D01*
G01X6150Y12334D01*
G01X6659Y12519D02*
G01X6644Y12548D01*
G01X6617Y12576D01*
G01X6588Y12592D01*
G01X6530Y12592D01*
G01X6501Y12576D01*
G01X6473Y12548D01*
G01X6459Y12519D01*
G01X6444Y12476D01*
G01X6444Y12405D01*
G01X6459Y12363D01*
G01X6473Y12334D01*
G01X6501Y12305D01*
G01X6530Y12290D01*
G01X6588Y12290D01*
G01X6617Y12305D01*
G01X6644Y12334D01*
G01X6659Y12363D01*
G01X6753Y12592D02*
G01X6753Y12290D01*
G01X6753Y12290D02*
G01X6926Y12290D01*
G01X6300Y11149D02*
G01X6271Y11177D01*
G01X6228Y11192D01*
G01X6171Y11192D01*
G01X6128Y11177D01*
G01X6100Y11149D01*
G01X6100Y11120D01*
G01X6113Y11092D01*
G01X6128Y11077D01*
G01X6157Y11063D01*
G01X6242Y11034D01*
G01X6271Y11020D01*
G01X6286Y11006D01*
G01X6300Y10977D01*
G01X6300Y10934D01*
G01X6271Y10905D01*
G01X6228Y10891D01*
G01X6171Y10891D01*
G01X6128Y10905D01*
G01X6100Y10934D01*
G01X6394Y11192D02*
G01X6394Y10891D01*
G01X6394Y11192D02*
G01X6494Y11192D01*
G01X6538Y11177D01*
G01X6567Y11149D01*
G01X6580Y11120D01*
G01X6594Y11077D01*
G01X6594Y11006D01*
G01X6580Y10963D01*
G01X6567Y10934D01*
G01X6538Y10905D01*
G01X6494Y10891D01*
G01X6394Y10891D01*
G01X6803Y11192D02*
G01X6690Y10891D01*
G01X6803Y11192D02*
G01X6919Y10891D01*
G01X6732Y10991D02*
G01X6876Y10991D01*
G01X10422Y1892D02*
G01X10278Y1892D01*
G01X10264Y1763D01*
G01X10278Y1776D01*
G01X10322Y1792D01*
G01X10364Y1792D01*
G01X10406Y1776D01*
G01X10435Y1748D01*
G01X10450Y1705D01*
G01X10450Y1676D01*
G01X10435Y1634D01*
G01X10406Y1605D01*
G01X10364Y1590D01*
G01X10322Y1590D01*
G01X10278Y1605D01*
G01X10264Y1619D01*
G01X10250Y1648D01*
G01X10544Y1892D02*
G01X10659Y1590D01*
G01X10773Y1892D02*
G01X10659Y1590D01*
G01X10128Y3191D02*
G01X10285Y3191D01*
G01X10200Y3076D01*
G01X10243Y3076D01*
G01X10272Y3062D01*
G01X10285Y3048D01*
G01X10300Y3005D01*
G01X10300Y2976D01*
G01X10285Y2933D01*
G01X10256Y2904D01*
G01X10214Y2890D01*
G01X10172Y2890D01*
G01X10128Y2904D01*
G01X10114Y2919D01*
G01X10100Y2947D01*
G01X10394Y3191D02*
G01X10509Y2890D01*
G01X10623Y3191D02*
G01X10509Y2890D01*
G01X10747Y3191D02*
G01X10905Y3191D01*
G01X10818Y3076D01*
G01X10861Y3076D01*
G01X10889Y3062D01*
G01X10905Y3048D01*
G01X10918Y3005D01*
G01X10918Y2976D01*
G01X10905Y2933D01*
G01X10876Y2904D01*
G01X10832Y2890D01*
G01X10789Y2890D01*
G01X10747Y2904D01*
G01X10732Y2919D01*
G01X10718Y2947D01*
G01X10314Y4320D02*
G01X10300Y4349D01*
G01X10272Y4377D01*
G01X10243Y4392D01*
G01X10185Y4392D01*
G01X10156Y4377D01*
G01X10128Y4349D01*
G01X10114Y4320D01*
G01X10100Y4277D01*
G01X10100Y4206D01*
G01X10114Y4163D01*
G01X10128Y4134D01*
G01X10156Y4105D01*
G01X10185Y4091D01*
G01X10243Y4091D01*
G01X10272Y4105D01*
G01X10300Y4134D01*
G01X10314Y4163D01*
G01X10314Y4206D01*
G01X10243Y4206D02*
G01X10314Y4206D01*
G01X10409Y4392D02*
G01X10409Y4091D01*
G01X10409Y4392D02*
G01X10610Y4091D01*
G01X10610Y4392D02*
G01X10610Y4091D01*
G01X10703Y4392D02*
G01X10703Y4091D01*
G01X10703Y4392D02*
G01X10803Y4392D01*
G01X10847Y4377D01*
G01X10876Y4349D01*
G01X10889Y4320D01*
G01X10905Y4277D01*
G01X10905Y4206D01*
G01X10889Y4163D01*
G01X10876Y4134D01*
G01X10847Y4105D01*
G01X10803Y4091D01*
G01X10703Y4091D01*
G01X5400Y14017D02*
G01X5400Y13803D01*
G01X5413Y13759D01*
G01X5442Y13730D01*
G01X5486Y13717D01*
G01X5515Y13717D01*
G01X5557Y13730D01*
G01X5586Y13759D01*
G01X5600Y13803D01*
G01X5600Y14017D01*
G01X5867Y14017D02*
G01X5723Y14017D01*
G01X5709Y13888D01*
G01X5723Y13903D01*
G01X5765Y13917D01*
G01X5809Y13917D01*
G01X5851Y13903D01*
G01X5880Y13875D01*
G01X5894Y13832D01*
G01X5894Y13803D01*
G01X5880Y13759D01*
G01X5851Y13730D01*
G01X5809Y13717D01*
G01X5765Y13717D01*
G01X5723Y13730D01*
G01X5709Y13746D01*
G01X5694Y13773D01*
G01X1249Y19567D02*
G01X1249Y19353D01*
G01X1264Y19310D01*
G01X1292Y19281D01*
G01X1335Y19267D01*
G01X1364Y19267D01*
G01X1407Y19281D01*
G01X1435Y19310D01*
G01X1450Y19353D01*
G01X1450Y19567D01*
G01X1687Y19567D02*
G01X1544Y19367D01*
G01X1759Y19367D01*
G01X1687Y19567D02*
G01X1687Y19267D01*
G01X8350Y3618D02*
G01X8350Y3403D01*
G01X8363Y3360D01*
G01X8392Y3331D01*
G01X8436Y3317D01*
G01X8465Y3317D01*
G01X8507Y3331D01*
G01X8536Y3360D01*
G01X8550Y3403D01*
G01X8550Y3618D01*
G01X8659Y3546D02*
G01X8659Y3561D01*
G01X8673Y3589D01*
G01X8688Y3603D01*
G01X8715Y3618D01*
G01X8773Y3618D01*
G01X8801Y3603D01*
G01X8817Y3589D01*
G01X8830Y3561D01*
G01X8830Y3532D01*
G01X8817Y3503D01*
G01X8788Y3460D01*
G01X8644Y3317D01*
G01X8844Y3317D01*
G01X8000Y11650D02*
G01X8000Y11349D01*
G01X8000Y11650D02*
G01X8128Y11650D01*
G01X8171Y11635D01*
G01X8186Y11621D01*
G01X8200Y11593D01*
G01X8200Y11564D01*
G01X8186Y11535D01*
G01X8171Y11521D01*
G01X8128Y11507D01*
G01X8000Y11507D01*
G01X8100Y11507D02*
G01X8200Y11349D01*
G01X8480Y11550D02*
G01X8467Y11507D01*
G01X8438Y11478D01*
G01X8394Y11464D01*
G01X8380Y11464D01*
G01X8338Y11478D01*
G01X8309Y11507D01*
G01X8294Y11550D01*
G01X8294Y11564D01*
G01X8309Y11607D01*
G01X8338Y11635D01*
G01X8380Y11650D01*
G01X8394Y11650D01*
G01X8438Y11635D01*
G01X8467Y11607D01*
G01X8480Y11550D01*
G01X8480Y11478D01*
G01X8467Y11406D01*
G01X8438Y11363D01*
G01X8394Y11349D01*
G01X8365Y11349D01*
G01X8323Y11363D01*
G01X8309Y11392D01*
G01X8000Y13141D02*
G01X8000Y12840D01*
G01X8000Y13141D02*
G01X8128Y13141D01*
G01X8171Y13127D01*
G01X8186Y13112D01*
G01X8200Y13084D01*
G01X8200Y13055D01*
G01X8186Y13027D01*
G01X8171Y13012D01*
G01X8128Y12998D01*
G01X8000Y12998D01*
G01X8100Y12998D02*
G01X8200Y12840D01*
G01X8294Y13084D02*
G01X8323Y13098D01*
G01X8365Y13141D01*
G01X8365Y12840D01*
G01X8546Y13141D02*
G01X8503Y13127D01*
G01X8475Y13084D01*
G01X8461Y13012D01*
G01X8461Y12969D01*
G01X8475Y12898D01*
G01X8503Y12855D01*
G01X8546Y12840D01*
G01X8576Y12840D01*
G01X8617Y12855D01*
G01X8646Y12898D01*
G01X8661Y12969D01*
G01X8661Y13012D01*
G01X8646Y13084D01*
G01X8617Y13127D01*
G01X8576Y13141D01*
G01X8546Y13141D01*
G01X4900Y13067D02*
G01X4900Y12767D01*
G01X4900Y13067D02*
G01X5028Y13067D01*
G01X5071Y13053D01*
G01X5086Y13038D01*
G01X5100Y13011D01*
G01X5100Y12982D01*
G01X5086Y12953D01*
G01X5071Y12938D01*
G01X5028Y12925D01*
G01X4900Y12925D01*
G01X5000Y12925D02*
G01X5100Y12767D01*
G01X5194Y13011D02*
G01X5223Y13025D01*
G01X5265Y13067D01*
G01X5265Y12767D01*
G01X5375Y12996D02*
G01X5375Y13011D01*
G01X5390Y13038D01*
G01X5403Y13053D01*
G01X5432Y13067D01*
G01X5490Y13067D01*
G01X5517Y13053D01*
G01X5532Y13038D01*
G01X5546Y13011D01*
G01X5546Y12982D01*
G01X5532Y12953D01*
G01X5503Y12909D01*
G01X5361Y12767D01*
G01X5561Y12767D01*
G54D49*
G01X11550Y4550D02*
G01X11550Y4173D01*
G01X11550Y4550D02*
G01X11710Y4550D01*
G01X11764Y4532D01*
G01X11782Y4513D01*
G01X11801Y4478D01*
G01X11801Y4442D01*
G01X11782Y4405D01*
G01X11764Y4388D01*
G01X11710Y4371D01*
G01X11550Y4371D02*
G01X11710Y4371D01*
G01X11764Y4353D01*
G01X11782Y4334D01*
G01X11801Y4298D01*
G01X11801Y4244D01*
G01X11782Y4209D01*
G01X11764Y4192D01*
G01X11710Y4173D01*
G01X11550Y4173D01*
G01X12026Y4550D02*
G01X11989Y4532D01*
G01X11953Y4496D01*
G01X11936Y4459D01*
G01X11918Y4405D01*
G01X11918Y4317D01*
G01X11936Y4263D01*
G01X11953Y4228D01*
G01X11989Y4192D01*
G01X12026Y4173D01*
G01X12097Y4173D01*
G01X12132Y4192D01*
G01X12168Y4228D01*
G01X12186Y4263D01*
G01X12205Y4317D01*
G01X12205Y4405D01*
G01X12186Y4459D01*
G01X12168Y4496D01*
G01X12132Y4532D01*
G01X12097Y4550D01*
G01X12026Y4550D01*
G01X12430Y4550D02*
G01X12394Y4532D01*
G01X12359Y4496D01*
G01X12340Y4459D01*
G01X12322Y4405D01*
G01X12322Y4317D01*
G01X12340Y4263D01*
G01X12359Y4228D01*
G01X12394Y4192D01*
G01X12430Y4173D01*
G01X12502Y4173D01*
G01X12538Y4192D01*
G01X12573Y4228D01*
G01X12592Y4263D01*
G01X12609Y4317D01*
G01X12609Y4405D01*
G01X12592Y4459D01*
G01X12573Y4496D01*
G01X12538Y4532D01*
G01X12502Y4550D01*
G01X12430Y4550D01*
G01X12852Y4550D02*
G01X12852Y4173D01*
G01X12727Y4550D02*
G01X12977Y4550D01*
G01X14000Y4585D02*
G01X14000Y4209D01*
G01X14000Y4585D02*
G01X14232Y4585D01*
G01X14000Y4406D02*
G01X14143Y4406D01*
G01X14000Y4209D02*
G01X14232Y4209D01*
G01X14351Y4585D02*
G01X14351Y4209D01*
G01X14351Y4585D02*
G01X14601Y4209D01*
G01X14601Y4585D02*
G01X14601Y4209D01*
G54D52*
G01X10885Y6141D02*
G01X10856Y6127D01*
G01X10828Y6098D01*
G01X10814Y6069D01*
G01X10800Y6026D01*
G01X10800Y5955D01*
G01X10814Y5912D01*
G01X10828Y5883D01*
G01X10856Y5855D01*
G01X10885Y5840D01*
G01X10943Y5840D01*
G01X10972Y5855D01*
G01X11000Y5883D01*
G01X11014Y5912D01*
G01X11028Y5955D01*
G01X11028Y6026D01*
G01X11014Y6069D01*
G01X11000Y6098D01*
G01X10972Y6127D01*
G01X10943Y6141D01*
G01X10885Y6141D01*
G01X10928Y5898D02*
G01X11014Y5812D01*
G01X11138Y6069D02*
G01X11138Y6084D01*
G01X11152Y6112D01*
G01X11165Y6127D01*
G01X11194Y6141D01*
G01X11252Y6141D01*
G01X11281Y6127D01*
G01X11294Y6112D01*
G01X11310Y6084D01*
G01X11310Y6055D01*
G01X11294Y6026D01*
G01X11267Y5983D01*
G01X11123Y5840D01*
G01X11323Y5840D01*
G01X12885Y6150D02*
G01X12856Y6136D01*
G01X12828Y6107D01*
G01X12814Y6078D01*
G01X12800Y6035D01*
G01X12800Y5964D01*
G01X12814Y5921D01*
G01X12828Y5892D01*
G01X12856Y5864D01*
G01X12885Y5849D01*
G01X12943Y5849D01*
G01X12972Y5864D01*
G01X13000Y5892D01*
G01X13014Y5921D01*
G01X13028Y5964D01*
G01X13028Y6035D01*
G01X13014Y6078D01*
G01X13000Y6107D01*
G01X12972Y6136D01*
G01X12943Y6150D01*
G01X12885Y6150D01*
G01X12928Y5907D02*
G01X13014Y5821D01*
G01X13123Y6093D02*
G01X13152Y6107D01*
G01X13194Y6150D01*
G01X13194Y5849D01*
G01X16650Y16042D02*
G01X16650Y15826D01*
G01X16664Y15784D01*
G01X16693Y15755D01*
G01X16736Y15740D01*
G01X16764Y15740D01*
G01X16807Y15755D01*
G01X16836Y15784D01*
G01X16850Y15826D01*
G01X16850Y16042D01*
G01X16945Y15984D02*
G01X16973Y15998D01*
G01X17016Y16042D01*
G01X17016Y15740D01*
G01X2450Y2525D02*
G01X2421Y2553D01*
G01X2378Y2567D01*
G01X2321Y2567D01*
G01X2278Y2553D01*
G01X2250Y2525D01*
G01X2250Y2496D01*
G01X2263Y2467D01*
G01X2278Y2453D01*
G01X2307Y2438D01*
G01X2392Y2409D01*
G01X2421Y2396D01*
G01X2436Y2382D01*
G01X2450Y2353D01*
G01X2450Y2309D01*
G01X2421Y2280D01*
G01X2378Y2267D01*
G01X2321Y2267D01*
G01X2278Y2280D01*
G01X2250Y2309D01*
G01X2644Y2567D02*
G01X2644Y2267D01*
G01X2544Y2567D02*
G01X2744Y2567D01*
G01X2953Y2567D02*
G01X2840Y2267D01*
G01X2953Y2567D02*
G01X3069Y2267D01*
G01X2882Y2367D02*
G01X3026Y2367D01*
G01X3263Y2567D02*
G01X3263Y2267D01*
G01X3163Y2567D02*
G01X3363Y2567D01*
G01X3457Y2567D02*
G01X3457Y2353D01*
G01X3473Y2309D01*
G01X3501Y2280D01*
G01X3544Y2267D01*
G01X3573Y2267D01*
G01X3615Y2280D01*
G01X3644Y2309D01*
G01X3659Y2353D01*
G01X3659Y2567D01*
G01X3953Y2525D02*
G01X3925Y2553D01*
G01X3882Y2567D01*
G01X3825Y2567D01*
G01X3782Y2553D01*
G01X3753Y2525D01*
G01X3753Y2496D01*
G01X3767Y2467D01*
G01X3782Y2453D01*
G01X3809Y2438D01*
G01X3896Y2409D01*
G01X3925Y2396D01*
G01X3938Y2382D01*
G01X3953Y2353D01*
G01X3953Y2309D01*
G01X3925Y2280D01*
G01X3882Y2267D01*
G01X3825Y2267D01*
G01X3782Y2280D01*
G01X3753Y2309D01*
G01X16100Y3392D02*
G01X16100Y3090D01*
G01X16100Y3090D02*
G01X16271Y3090D01*
G01X16366Y3392D02*
G01X16366Y3090D01*
G01X16366Y3392D02*
G01X16552Y3392D01*
G01X16366Y3248D02*
G01X16480Y3248D01*
G01X16366Y3090D02*
G01X16552Y3090D01*
G01X16646Y3392D02*
G01X16646Y3090D01*
G01X16646Y3392D02*
G01X16747Y3392D01*
G01X16790Y3376D01*
G01X16818Y3348D01*
G01X16832Y3319D01*
G01X16847Y3276D01*
G01X16847Y3205D01*
G01X16832Y3163D01*
G01X16818Y3134D01*
G01X16790Y3105D01*
G01X16747Y3090D01*
G01X16646Y3090D01*
G01X9464Y5677D02*
G01X9449Y5706D01*
G01X9421Y5734D01*
G01X9392Y5749D01*
G01X9335Y5749D01*
G01X9306Y5734D01*
G01X9278Y5706D01*
G01X9263Y5677D01*
G01X9249Y5634D01*
G01X9249Y5563D01*
G01X9263Y5520D01*
G01X9278Y5491D01*
G01X9306Y5462D01*
G01X9335Y5448D01*
G01X9392Y5448D01*
G01X9421Y5462D01*
G01X9449Y5491D01*
G01X9464Y5520D01*
G01X9573Y5677D02*
G01X9573Y5692D01*
G01X9587Y5720D01*
G01X9601Y5734D01*
G01X9630Y5749D01*
G01X9687Y5749D01*
G01X9716Y5734D01*
G01X9730Y5720D01*
G01X9744Y5692D01*
G01X9744Y5663D01*
G01X9730Y5634D01*
G01X9701Y5591D01*
G01X9558Y5448D01*
G01X9759Y5448D01*
G01X7965Y5677D02*
G01X7950Y5706D01*
G01X7921Y5734D01*
G01X7892Y5749D01*
G01X7836Y5749D01*
G01X7807Y5734D01*
G01X7778Y5706D01*
G01X7763Y5677D01*
G01X7750Y5634D01*
G01X7750Y5563D01*
G01X7763Y5520D01*
G01X7778Y5491D01*
G01X7807Y5462D01*
G01X7836Y5448D01*
G01X7892Y5448D01*
G01X7921Y5462D01*
G01X7950Y5491D01*
G01X7965Y5520D01*
G01X8059Y5692D02*
G01X8088Y5706D01*
G01X8130Y5749D01*
G01X8130Y5448D01*
G01X3300Y5100D02*
G01X3300Y4799D01*
G01X3300Y5100D02*
G01X3400Y5100D01*
G01X3442Y5086D01*
G01X3471Y5057D01*
G01X3486Y5028D01*
G01X3500Y4985D01*
G01X3500Y4914D01*
G01X3486Y4871D01*
G01X3471Y4842D01*
G01X3442Y4814D01*
G01X3400Y4799D01*
G01X3300Y4799D01*
G01X3594Y5043D02*
G01X3623Y5057D01*
G01X3665Y5100D01*
G01X3665Y4799D01*
G01X11749Y7750D02*
G01X11749Y7448D01*
G01X11749Y7750D02*
G01X11878Y7750D01*
G01X11921Y7734D01*
G01X11935Y7721D01*
G01X11949Y7692D01*
G01X11949Y7663D01*
G01X11935Y7634D01*
G01X11921Y7621D01*
G01X11878Y7607D01*
G01X11749Y7607D01*
G01X11849Y7607D02*
G01X11949Y7448D01*
G01X12115Y7750D02*
G01X12073Y7734D01*
G01X12058Y7707D01*
G01X12058Y7678D01*
G01X12073Y7650D01*
G01X12101Y7634D01*
G01X12158Y7621D01*
G01X12201Y7607D01*
G01X12230Y7578D01*
G01X12244Y7548D01*
G01X12244Y7505D01*
G01X12230Y7478D01*
G01X12216Y7463D01*
G01X12173Y7448D01*
G01X12115Y7448D01*
G01X12073Y7463D01*
G01X12058Y7478D01*
G01X12044Y7505D01*
G01X12044Y7548D01*
G01X12058Y7578D01*
G01X12087Y7607D01*
G01X12130Y7621D01*
G01X12187Y7634D01*
G01X12216Y7650D01*
G01X12230Y7678D01*
G01X12230Y7707D01*
G01X12216Y7734D01*
G01X12173Y7750D01*
G01X12115Y7750D01*
G01X6249Y2500D02*
G01X6249Y2200D01*
G01X6249Y2500D02*
G01X6378Y2500D01*
G01X6421Y2486D01*
G01X6435Y2471D01*
G01X6449Y2442D01*
G01X6449Y2413D01*
G01X6435Y2386D01*
G01X6421Y2371D01*
G01X6378Y2357D01*
G01X6249Y2357D01*
G01X6349Y2357D02*
G01X6449Y2200D01*
G01X6558Y2428D02*
G01X6558Y2442D01*
G01X6573Y2471D01*
G01X6587Y2486D01*
G01X6615Y2500D01*
G01X6673Y2500D01*
G01X6701Y2486D01*
G01X6716Y2471D01*
G01X6730Y2442D01*
G01X6730Y2413D01*
G01X6716Y2386D01*
G01X6687Y2342D01*
G01X6544Y2200D01*
G01X6744Y2200D01*
G01X6214Y6569D02*
G01X6200Y6598D01*
G01X6171Y6626D01*
G01X6142Y6642D01*
G01X6085Y6642D01*
G01X6056Y6626D01*
G01X6028Y6598D01*
G01X6013Y6569D01*
G01X5999Y6526D01*
G01X5999Y6455D01*
G01X6013Y6413D01*
G01X6028Y6384D01*
G01X6056Y6355D01*
G01X6085Y6340D01*
G01X6142Y6340D01*
G01X6171Y6355D01*
G01X6200Y6384D01*
G01X6214Y6413D01*
G01X6308Y6584D02*
G01X6337Y6598D01*
G01X6380Y6642D01*
G01X6380Y6340D01*
G01X6489Y6569D02*
G01X6489Y6584D01*
G01X6503Y6613D01*
G01X6517Y6626D01*
G01X6546Y6642D01*
G01X6603Y6642D01*
G01X6632Y6626D01*
G01X6646Y6613D01*
G01X6661Y6584D01*
G01X6661Y6555D01*
G01X6646Y6526D01*
G01X6618Y6484D01*
G01X6474Y6340D01*
G01X6675Y6340D01*
G01X3999Y4250D02*
G01X3999Y3948D01*
G01X3999Y4250D02*
G01X4099Y4250D01*
G01X4142Y4234D01*
G01X4170Y4207D01*
G01X4185Y4178D01*
G01X4199Y4134D01*
G01X4199Y4063D01*
G01X4185Y4021D01*
G01X4170Y3992D01*
G01X4142Y3963D01*
G01X4099Y3948D01*
G01X3999Y3948D01*
G01X4437Y4250D02*
G01X4294Y4048D01*
G01X4508Y4048D01*
G01X4437Y4250D02*
G01X4437Y3948D01*
G01X2500Y4250D02*
G01X2500Y3948D01*
G01X2500Y4250D02*
G01X2600Y4250D01*
G01X2643Y4234D01*
G01X2671Y4207D01*
G01X2686Y4178D01*
G01X2700Y4134D01*
G01X2700Y4063D01*
G01X2686Y4021D01*
G01X2671Y3992D01*
G01X2643Y3963D01*
G01X2600Y3948D01*
G01X2500Y3948D01*
G01X2809Y4178D02*
G01X2809Y4192D01*
G01X2823Y4221D01*
G01X2838Y4234D01*
G01X2866Y4250D01*
G01X2923Y4250D01*
G01X2952Y4234D01*
G01X2966Y4221D01*
G01X2981Y4192D01*
G01X2981Y4163D01*
G01X2966Y4134D01*
G01X2938Y4092D01*
G01X2795Y3948D01*
G01X2995Y3948D01*
G01X3249Y4250D02*
G01X3249Y3948D01*
G01X3249Y4250D02*
G01X3349Y4250D01*
G01X3392Y4234D01*
G01X3420Y4207D01*
G01X3435Y4178D01*
G01X3449Y4134D01*
G01X3449Y4063D01*
G01X3435Y4021D01*
G01X3420Y3992D01*
G01X3392Y3963D01*
G01X3349Y3948D01*
G01X3249Y3948D01*
G01X3572Y4250D02*
G01X3730Y4250D01*
G01X3644Y4134D01*
G01X3687Y4134D01*
G01X3715Y4121D01*
G01X3730Y4107D01*
G01X3744Y4063D01*
G01X3744Y4034D01*
G01X3730Y3992D01*
G01X3701Y3963D01*
G01X3658Y3948D01*
G01X3615Y3948D01*
G01X3572Y3963D01*
G01X3558Y3978D01*
G01X3544Y4005D01*
G01X250Y5250D02*
G01X250Y5035D01*
G01X265Y4992D01*
G01X292Y4963D01*
G01X336Y4949D01*
G01X365Y4949D01*
G01X407Y4963D01*
G01X436Y4992D01*
G01X451Y5035D01*
G01X451Y5250D01*
G01X746Y5207D02*
G01X717Y5235D01*
G01X673Y5250D01*
G01X617Y5250D01*
G01X573Y5235D01*
G01X544Y5207D01*
G01X544Y5178D01*
G01X559Y5150D01*
G01X573Y5135D01*
G01X601Y5121D01*
G01X688Y5092D01*
G01X717Y5078D01*
G01X730Y5064D01*
G01X746Y5035D01*
G01X746Y4992D01*
G01X717Y4963D01*
G01X673Y4949D01*
G01X617Y4949D01*
G01X573Y4963D01*
G01X544Y4992D01*
G01X840Y5250D02*
G01X840Y4949D01*
G01X840Y5250D02*
G01X969Y5250D01*
G01X1011Y5235D01*
G01X1026Y5221D01*
G01X1040Y5193D01*
G01X1040Y5164D01*
G01X1026Y5135D01*
G01X1011Y5121D01*
G01X969Y5107D01*
G01X840Y5107D02*
G01X969Y5107D01*
G01X1011Y5092D01*
G01X1026Y5078D01*
G01X1040Y5049D01*
G01X1040Y5006D01*
G01X1026Y4978D01*
G01X1011Y4963D01*
G01X969Y4949D01*
G01X840Y4949D01*
G01X6100Y3691D02*
G01X6100Y3476D01*
G01X6113Y3433D01*
G01X6142Y3405D01*
G01X6186Y3390D01*
G01X6215Y3390D01*
G01X6257Y3405D01*
G01X6286Y3433D01*
G01X6300Y3476D01*
G01X6300Y3691D01*
G01X6423Y3691D02*
G01X6580Y3691D01*
G01X6494Y3576D01*
G01X6538Y3576D01*
G01X6567Y3562D01*
G01X6580Y3548D01*
G01X6594Y3505D01*
G01X6594Y3476D01*
G01X6580Y3433D01*
G01X6551Y3405D01*
G01X6509Y3390D01*
G01X6465Y3390D01*
G01X6423Y3405D01*
G01X6409Y3419D01*
G01X6394Y3448D01*
G01X2665Y6569D02*
G01X2650Y6598D01*
G01X2621Y6626D01*
G01X2592Y6642D01*
G01X2536Y6642D01*
G01X2507Y6626D01*
G01X2478Y6598D01*
G01X2463Y6569D01*
G01X2450Y6526D01*
G01X2450Y6455D01*
G01X2463Y6413D01*
G01X2478Y6384D01*
G01X2507Y6355D01*
G01X2536Y6340D01*
G01X2592Y6340D01*
G01X2621Y6355D01*
G01X2650Y6384D01*
G01X2665Y6413D01*
G01X2759Y6584D02*
G01X2788Y6598D01*
G01X2830Y6642D01*
G01X2830Y6340D01*
G01X2925Y6584D02*
G01X2953Y6598D01*
G01X2996Y6642D01*
G01X2996Y6340D01*
G01X2249Y11672D02*
G01X2249Y11371D01*
G01X2249Y11672D02*
G01X2378Y11672D01*
G01X2421Y11657D01*
G01X2435Y11643D01*
G01X2449Y11614D01*
G01X2449Y11571D01*
G01X2435Y11543D01*
G01X2421Y11529D01*
G01X2378Y11514D01*
G01X2249Y11514D01*
G01X2544Y11672D02*
G01X2544Y11371D01*
G01X2638Y11672D02*
G01X2638Y11371D01*
G01X2638Y11672D02*
G01X2767Y11672D01*
G01X2810Y11657D01*
G01X2825Y11643D01*
G01X2839Y11614D01*
G01X2839Y11586D01*
G01X2825Y11557D01*
G01X2810Y11543D01*
G01X2767Y11529D01*
G01X2638Y11529D01*
G01X2739Y11529D02*
G01X2839Y11371D01*
G01X15314Y4078D02*
G01X15300Y4107D01*
G01X15272Y4134D01*
G01X15243Y4150D01*
G01X15185Y4150D01*
G01X15156Y4134D01*
G01X15128Y4107D01*
G01X15114Y4078D01*
G01X15100Y4034D01*
G01X15100Y3963D01*
G01X15114Y3921D01*
G01X15128Y3892D01*
G01X15156Y3863D01*
G01X15185Y3848D01*
G01X15243Y3848D01*
G01X15272Y3863D01*
G01X15300Y3892D01*
G01X15314Y3921D01*
G01X15409Y4092D02*
G01X15438Y4107D01*
G01X15481Y4150D01*
G01X15481Y3848D01*
G01X15603Y4150D02*
G01X15760Y4150D01*
G01X15676Y4034D01*
G01X15718Y4034D01*
G01X15747Y4021D01*
G01X15760Y4007D01*
G01X15776Y3963D01*
G01X15776Y3934D01*
G01X15760Y3892D01*
G01X15732Y3863D01*
G01X15689Y3848D01*
G01X15647Y3848D01*
G01X15603Y3863D01*
G01X15589Y3878D01*
G01X15575Y3905D01*
G01X8165Y14819D02*
G01X8150Y14848D01*
G01X8121Y14876D01*
G01X8092Y14892D01*
G01X8036Y14892D01*
G01X8007Y14876D01*
G01X7978Y14848D01*
G01X7963Y14819D01*
G01X7950Y14776D01*
G01X7950Y14705D01*
G01X7963Y14663D01*
G01X7978Y14634D01*
G01X8007Y14605D01*
G01X8036Y14590D01*
G01X8092Y14590D01*
G01X8121Y14605D01*
G01X8150Y14634D01*
G01X8165Y14663D01*
G01X8430Y14848D02*
G01X8417Y14876D01*
G01X8373Y14892D01*
G01X8344Y14892D01*
G01X8301Y14876D01*
G01X8273Y14834D01*
G01X8259Y14763D01*
G01X8259Y14690D01*
G01X8273Y14634D01*
G01X8301Y14605D01*
G01X8344Y14590D01*
G01X8359Y14590D01*
G01X8401Y14605D01*
G01X8430Y14634D01*
G01X8444Y14676D01*
G01X8444Y14690D01*
G01X8430Y14734D01*
G01X8401Y14763D01*
G01X8359Y14776D01*
G01X8344Y14776D01*
G01X8301Y14763D01*
G01X8273Y14734D01*
G01X8259Y14690D01*
G01X8250Y7500D02*
G01X8250Y7198D01*
G01X8250Y7500D02*
G01X8378Y7500D01*
G01X8421Y7484D01*
G01X8436Y7471D01*
G01X8450Y7442D01*
G01X8450Y7413D01*
G01X8436Y7384D01*
G01X8421Y7371D01*
G01X8378Y7357D01*
G01X8250Y7357D01*
G01X8350Y7357D02*
G01X8450Y7198D01*
G01X8717Y7500D02*
G01X8573Y7500D01*
G01X8559Y7371D01*
G01X8573Y7384D01*
G01X8615Y7400D01*
G01X8659Y7400D01*
G01X8701Y7384D01*
G01X8730Y7357D01*
G01X8744Y7313D01*
G01X8744Y7284D01*
G01X8730Y7242D01*
G01X8701Y7213D01*
G01X8659Y7198D01*
G01X8615Y7198D01*
G01X8573Y7213D01*
G01X8559Y7228D01*
G01X8544Y7255D01*
G01X7999Y10149D02*
G01X7999Y9849D01*
G01X7999Y10149D02*
G01X8128Y10149D01*
G01X8171Y10135D01*
G01X8185Y10121D01*
G01X8199Y10092D01*
G01X8199Y10063D01*
G01X8185Y10035D01*
G01X8171Y10020D01*
G01X8128Y10006D01*
G01X7999Y10006D01*
G01X8099Y10006D02*
G01X8199Y9849D01*
G01X8294Y10092D02*
G01X8323Y10106D01*
G01X8365Y10149D01*
G01X8365Y9849D01*
G01X8460Y10092D02*
G01X8489Y10106D01*
G01X8532Y10149D01*
G01X8532Y9849D01*
G01X9250Y7500D02*
G01X9250Y7199D01*
G01X9250Y7500D02*
G01X9378Y7500D01*
G01X9421Y7485D01*
G01X9436Y7471D01*
G01X9450Y7443D01*
G01X9450Y7414D01*
G01X9436Y7385D01*
G01X9421Y7371D01*
G01X9378Y7357D01*
G01X9250Y7357D01*
G01X9350Y7357D02*
G01X9450Y7199D01*
G01X9688Y7500D02*
G01X9544Y7299D01*
G01X9760Y7299D01*
G01X9688Y7500D02*
G01X9688Y7199D01*
G01X7250Y7500D02*
G01X7250Y7198D01*
G01X7250Y7500D02*
G01X7378Y7500D01*
G01X7421Y7484D01*
G01X7436Y7471D01*
G01X7450Y7442D01*
G01X7450Y7413D01*
G01X7436Y7384D01*
G01X7421Y7371D01*
G01X7378Y7357D01*
G01X7250Y7357D01*
G01X7350Y7357D02*
G01X7450Y7198D01*
G01X7717Y7457D02*
G01X7701Y7484D01*
G01X7659Y7500D01*
G01X7630Y7500D01*
G01X7588Y7484D01*
G01X7559Y7442D01*
G01X7544Y7371D01*
G01X7544Y7298D01*
G01X7559Y7242D01*
G01X7588Y7213D01*
G01X7630Y7198D01*
G01X7644Y7198D01*
G01X7688Y7213D01*
G01X7717Y7242D01*
G01X7730Y7284D01*
G01X7730Y7298D01*
G01X7717Y7342D01*
G01X7688Y7371D01*
G01X7644Y7384D01*
G01X7630Y7384D01*
G01X7588Y7371D01*
G01X7559Y7342D01*
G01X7544Y7298D01*
G01X15100Y5150D02*
G01X15100Y4848D01*
G01X15100Y5150D02*
G01X15228Y5150D01*
G01X15272Y5134D01*
G01X15285Y5121D01*
G01X15300Y5092D01*
G01X15300Y5063D01*
G01X15285Y5034D01*
G01X15272Y5021D01*
G01X15228Y5007D01*
G01X15100Y5007D01*
G01X15200Y5007D02*
G01X15300Y4848D01*
G01X15423Y5150D02*
G01X15581Y5150D01*
G01X15494Y5034D01*
G01X15538Y5034D01*
G01X15567Y5021D01*
G01X15581Y5007D01*
G01X15594Y4963D01*
G01X15594Y4934D01*
G01X15581Y4892D01*
G01X15552Y4863D01*
G01X15509Y4848D01*
G01X15465Y4848D01*
G01X15423Y4863D01*
G01X15409Y4878D01*
G01X15394Y4905D01*
G01X13750Y7750D02*
G01X13750Y7448D01*
G01X13750Y7750D02*
G01X13878Y7750D01*
G01X13922Y7734D01*
G01X13935Y7721D01*
G01X13950Y7692D01*
G01X13950Y7663D01*
G01X13935Y7634D01*
G01X13922Y7621D01*
G01X13878Y7607D01*
G01X13750Y7607D01*
G01X13850Y7607D02*
G01X13950Y7448D01*
G01X14244Y7750D02*
G01X14102Y7448D01*
G01X14044Y7750D02*
G01X14244Y7750D01*
G01X3465Y13220D02*
G01X3450Y13249D01*
G01X3421Y13277D01*
G01X3392Y13292D01*
G01X3336Y13292D01*
G01X3307Y13277D01*
G01X3278Y13249D01*
G01X3263Y13220D01*
G01X3250Y13177D01*
G01X3250Y13106D01*
G01X3263Y13063D01*
G01X3278Y13034D01*
G01X3307Y13005D01*
G01X3336Y12991D01*
G01X3392Y12991D01*
G01X3421Y13005D01*
G01X3450Y13034D01*
G01X3465Y13063D01*
G01X3744Y13191D02*
G01X3730Y13149D01*
G01X3701Y13120D01*
G01X3659Y13106D01*
G01X3644Y13106D01*
G01X3601Y13120D01*
G01X3573Y13149D01*
G01X3559Y13191D01*
G01X3559Y13206D01*
G01X3573Y13249D01*
G01X3601Y13277D01*
G01X3644Y13292D01*
G01X3659Y13292D01*
G01X3701Y13277D01*
G01X3730Y13249D01*
G01X3744Y13191D01*
G01X3744Y13120D01*
G01X3730Y13048D01*
G01X3701Y13005D01*
G01X3659Y12991D01*
G01X3630Y12991D01*
G01X3588Y13005D01*
G01X3573Y13034D01*
G01X4465Y2428D02*
G01X4450Y2457D01*
G01X4421Y2484D01*
G01X4392Y2500D01*
G01X4336Y2500D01*
G01X4307Y2484D01*
G01X4278Y2457D01*
G01X4263Y2428D01*
G01X4250Y2384D01*
G01X4250Y2313D01*
G01X4263Y2271D01*
G01X4278Y2242D01*
G01X4307Y2213D01*
G01X4336Y2198D01*
G01X4392Y2198D01*
G01X4421Y2213D01*
G01X4450Y2242D01*
G01X4465Y2271D01*
G01X4588Y2500D02*
G01X4744Y2500D01*
G01X4659Y2384D01*
G01X4701Y2384D01*
G01X4730Y2371D01*
G01X4744Y2357D01*
G01X4759Y2313D01*
G01X4759Y2284D01*
G01X4744Y2242D01*
G01X4717Y2213D01*
G01X4673Y2198D01*
G01X4630Y2198D01*
G01X4588Y2213D01*
G01X4573Y2228D01*
G01X4559Y2255D01*
G01X8215Y8600D02*
G01X8200Y8629D01*
G01X8171Y8657D01*
G01X8142Y8672D01*
G01X8086Y8672D01*
G01X8057Y8657D01*
G01X8028Y8629D01*
G01X8013Y8600D01*
G01X8000Y8557D01*
G01X8000Y8486D01*
G01X8013Y8443D01*
G01X8028Y8414D01*
G01X8057Y8385D01*
G01X8086Y8371D01*
G01X8142Y8371D01*
G01X8171Y8385D01*
G01X8200Y8414D01*
G01X8215Y8443D01*
G01X8309Y8614D02*
G01X8338Y8629D01*
G01X8380Y8672D01*
G01X8380Y8371D01*
G01X8561Y8672D02*
G01X8517Y8657D01*
G01X8490Y8614D01*
G01X8475Y8543D01*
G01X8475Y8500D01*
G01X8490Y8428D01*
G01X8517Y8385D01*
G01X8561Y8371D01*
G01X8590Y8371D01*
G01X8632Y8385D01*
G01X8661Y8428D01*
G01X8676Y8500D01*
G01X8676Y8543D01*
G01X8661Y8614D01*
G01X8632Y8657D01*
G01X8590Y8672D01*
G01X8561Y8672D01*
G01X1365Y16619D02*
G01X1350Y16648D01*
G01X1322Y16677D01*
G01X1293Y16692D01*
G01X1236Y16692D01*
G01X1207Y16677D01*
G01X1179Y16648D01*
G01X1164Y16619D01*
G01X1150Y16577D01*
G01X1150Y16505D01*
G01X1164Y16463D01*
G01X1179Y16434D01*
G01X1207Y16405D01*
G01X1236Y16390D01*
G01X1293Y16390D01*
G01X1322Y16405D01*
G01X1350Y16434D01*
G01X1365Y16463D01*
G01X1459Y16634D02*
G01X1488Y16648D01*
G01X1531Y16692D01*
G01X1531Y16390D01*
G01X1768Y16692D02*
G01X1625Y16490D01*
G01X1840Y16490D01*
G01X1768Y16692D02*
G01X1768Y16390D01*
G01X8215Y16319D02*
G01X8200Y16348D01*
G01X8171Y16376D01*
G01X8142Y16392D01*
G01X8086Y16392D01*
G01X8057Y16376D01*
G01X8028Y16348D01*
G01X8013Y16319D01*
G01X8000Y16276D01*
G01X8000Y16205D01*
G01X8013Y16163D01*
G01X8028Y16134D01*
G01X8057Y16105D01*
G01X8086Y16090D01*
G01X8142Y16090D01*
G01X8171Y16105D01*
G01X8200Y16134D01*
G01X8215Y16163D01*
G01X8509Y16392D02*
G01X8365Y16090D01*
G01X8309Y16392D02*
G01X8509Y16392D01*
G01X15314Y6069D02*
G01X15300Y6098D01*
G01X15272Y6126D01*
G01X15243Y6142D01*
G01X15185Y6142D01*
G01X15156Y6126D01*
G01X15128Y6098D01*
G01X15114Y6069D01*
G01X15100Y6026D01*
G01X15100Y5955D01*
G01X15114Y5913D01*
G01X15128Y5884D01*
G01X15156Y5855D01*
G01X15185Y5840D01*
G01X15243Y5840D01*
G01X15272Y5855D01*
G01X15300Y5884D01*
G01X15314Y5913D01*
G01X15581Y6142D02*
G01X15438Y6142D01*
G01X15423Y6013D01*
G01X15438Y6026D01*
G01X15481Y6042D01*
G01X15523Y6042D01*
G01X15567Y6026D01*
G01X15594Y5998D01*
G01X15610Y5955D01*
G01X15610Y5926D01*
G01X15594Y5884D01*
G01X15567Y5855D01*
G01X15523Y5840D01*
G01X15481Y5840D01*
G01X15438Y5855D01*
G01X15423Y5869D01*
G01X15409Y5898D01*
G01X5465Y2428D02*
G01X5450Y2457D01*
G01X5421Y2484D01*
G01X5392Y2500D01*
G01X5336Y2500D01*
G01X5307Y2484D01*
G01X5278Y2457D01*
G01X5263Y2428D01*
G01X5250Y2384D01*
G01X5250Y2313D01*
G01X5263Y2271D01*
G01X5278Y2242D01*
G01X5307Y2213D01*
G01X5336Y2198D01*
G01X5392Y2198D01*
G01X5421Y2213D01*
G01X5450Y2242D01*
G01X5465Y2271D01*
G01X5701Y2500D02*
G01X5559Y2298D01*
G01X5773Y2298D01*
G01X5701Y2500D02*
G01X5701Y2198D01*
G01X3484Y908D02*
G01X3484Y607D01*
G01X3484Y908D02*
G01X3613Y908D01*
G01X3656Y893D01*
G01X3670Y879D01*
G01X3684Y851D01*
G01X3684Y822D01*
G01X3670Y793D01*
G01X3656Y779D01*
G01X3613Y765D01*
G01X3484Y765D01*
G01X3584Y765D02*
G01X3684Y607D01*
G01X3779Y851D02*
G01X3808Y865D01*
G01X3850Y908D01*
G01X3850Y607D01*
G54D51*
G75*
G01X8440Y16944D02*
G03X8440Y16942I-39J2D01*
G01*
G54D10*
G75*
G01X5700Y6150D02*
G03X5800Y6250I0J100D01*
G01*
G75*
G01X5800Y6750D02*
G03X5700Y6850I-100J0D01*
G01*
G75*
G01X4800Y6150D02*
G02X4700Y6250I0J100D01*
G01*
G75*
G01X4700Y6750D02*
G02X4800Y6850I100J0D01*
G01*
G54D48*
G75*
G01X4211Y3067D02*
G03X4250Y3067I19J0D01*
G01*
G75*
G01X4250Y3067D02*
G03X4211Y3067I-20J0D01*
G01*
G75*
G01X2711Y3067D02*
G03X2750Y3067I19J0D01*
G01*
G75*
G01X2750Y3067D02*
G03X2711Y3067I-20J0D01*
G01*
G75*
G01X3461Y3067D02*
G03X3500Y3067I19J0D01*
G01*
G75*
G01X3500Y3067D02*
G03X3461Y3067I-20J0D01*
G01*
G54D10*
G75*
G01X3950Y12150D02*
G03X4050Y12250I0J100D01*
G01*
G75*
G01X4050Y12750D02*
G03X3950Y12850I-100J0D01*
G01*
G75*
G01X3050Y12150D02*
G02X2950Y12250I0J100D01*
G01*
G75*
G01X2950Y12750D02*
G02X3050Y12850I100J0D01*
G01*
G75*
G01X4150Y1050D02*
G03X4250Y950I100J0D01*
G01*
G75*
G01X4750Y950D02*
G03X4850Y1050I0J100D01*
G01*
G75*
G01X4150Y1950D02*
G02X4250Y2050I100J0D01*
G01*
G75*
G01X4750Y2050D02*
G02X4850Y1950I0J-100D01*
G01*
G75*
G01X7150Y8050D02*
G03X7250Y7950I100J0D01*
G01*
G75*
G01X7750Y7950D02*
G03X7850Y8050I0J100D01*
G01*
G75*
G01X7150Y8950D02*
G02X7250Y9050I100J0D01*
G01*
G75*
G01X7750Y9050D02*
G02X7850Y8950I0J-100D01*
G01*
G75*
G01X1050Y17600D02*
G03X950Y17500I0J-100D01*
G01*
G75*
G01X950Y17000D02*
G03X1050Y16900I100J0D01*
G01*
G75*
G01X1950Y17600D02*
G02X2050Y17500I0J-100D01*
G01*
G75*
G01X2050Y17000D02*
G02X1950Y16900I-100J0D01*
G01*
G75*
G01X7850Y16700D02*
G03X7750Y16800I-100J0D01*
G01*
G75*
G01X7250Y16800D02*
G03X7150Y16700I0J-100D01*
G01*
G75*
G01X7850Y15800D02*
G02X7750Y15700I-100J0D01*
G01*
G75*
G01X7250Y15700D02*
G02X7150Y15800I0J100D01*
G01*
G75*
G01X16950Y5650D02*
G03X17050Y5750I0J100D01*
G01*
G75*
G01X17050Y6250D02*
G03X16950Y6350I-100J0D01*
G01*
G75*
G01X16050Y5650D02*
G02X15950Y5750I0J100D01*
G01*
G75*
G01X15950Y6250D02*
G02X16050Y6350I100J0D01*
G01*
G75*
G01X5150Y1050D02*
G03X5250Y950I100J0D01*
G01*
G75*
G01X5750Y950D02*
G03X5850Y1050I0J100D01*
G01*
G75*
G01X5150Y1950D02*
G02X5250Y2050I100J0D01*
G01*
G75*
G01X5750Y2050D02*
G02X5850Y1950I0J-100D01*
G01*
G54D49*
G75*
G01X3748Y13967D02*
G03X3748Y13967I-16J0D01*
G01*
G54D10*
G75*
G01X690Y18854D02*
G03X690Y18854I-56J0D01*
G01*
G75*
G01X12474Y2250D02*
G03X12474Y2250I-224J0D01*
G01*
G75*
G01X12650Y2250D02*
G03X12650Y2250I-400J0D01*
G01*
G75*
G01X12474Y1450D02*
G03X12474Y1450I-224J0D01*
G01*
G75*
G01X12474Y3050D02*
G03X12474Y3050I-224J0D01*
G01*
G75*
G01X14474Y2250D02*
G03X14474Y2250I-224J0D01*
G01*
G75*
G01X14650Y2250D02*
G03X14650Y2250I-400J0D01*
G01*
G75*
G01X14474Y1450D02*
G03X14474Y1450I-224J0D01*
G01*
G75*
G01X14474Y3050D02*
G03X14474Y3050I-224J0D01*
G01*
G54D50*
G75*
G01X15516Y2594D02*
G03X15516Y2594I-50J0D01*
G01*
G54D10*
G75*
G01X5989Y9524D02*
G03X5989Y9524I-1535J0D01*
G01*

%LPD*%
G36*
G01X4731Y5675D02*
G01X4707Y5675D01*
G01X4698Y5673D01*
G01X4690Y5671D01*
G01X4683Y5668D01*
G01X4675Y5664D01*
G01X4668Y5659D01*
G01X4662Y5654D01*
G01X4656Y5648D01*
G01X4651Y5642D01*
G01X4646Y5635D01*
G01X4642Y5628D01*
G01X4636Y5612D01*
G01X4634Y5604D01*
G01X4633Y5596D01*
G01X4633Y5588D01*
G01X4634Y5579D01*
G01X4635Y5571D01*
G01X4637Y5563D01*
G01X4640Y5555D01*
G01X4648Y5541D01*
G01X4653Y5534D01*
G01X4659Y5528D01*
G01X4671Y5518D01*
G01X4679Y5513D01*
G01X4686Y5510D01*
G01X4694Y5507D01*
G01X4702Y5505D01*
G01X4718Y5503D01*
G01X4719Y5503D01*
G01X4728Y5504D01*
G01X4736Y5505D01*
G01X4744Y5507D01*
G01X4752Y5510D01*
G01X4759Y5513D01*
G01X4767Y5518D01*
G01X4779Y5528D01*
G01X4785Y5534D01*
G01X4790Y5541D01*
G01X4798Y5555D01*
G01X4801Y5563D01*
G01X4803Y5571D01*
G01X4804Y5579D01*
G01X4805Y5588D01*
G01X4805Y5596D01*
G01X4804Y5604D01*
G01X4802Y5612D01*
G01X4796Y5628D01*
G01X4792Y5635D01*
G01X4787Y5642D01*
G01X4782Y5648D01*
G01X4776Y5654D01*
G01X4770Y5659D01*
G01X4763Y5664D01*
G01X4755Y5668D01*
G01X4748Y5671D01*
G01X4740Y5673D01*
G01X4731Y5675D01*
G37*
M00*
M02*
